<svg width="708" height="675" viewBox="0 0 708 675" fill="none" xmlns="http://www.w3.org/2000/svg">
<path d="M492.142 563.534C421.417 607.819 354.562 660.153 281.027 672.091C207.211 683.542 126.093 654.857 75.7648 608.502C25.4368 562.147 5.89927 498.123 1.50031 439.563C-2.72733 380.63 8.80701 326.902 24.8897 267.654C40.9723 208.406 61.6032 143.638 113.464 92.1197C165.324 40.6018 248.695 2.821 331.525 0.293882C413.904 -2.34668 495.118 30.5263 559.256 75.351C623.394 120.176 670.283 177.325 692.424 241.17C715.016 305.129 713.764 376.009 675.529 429.698C637.464 483.013 562.868 519.249 492.142 563.534Z" fill="#F2F4F8"/>
</svg>
