<svg width="300" height="250" viewBox="0 0 300 250" fill="none" xmlns="http://www.w3.org/2000/svg">
<path d="M13.2878 214.494L46.4317 214.323L79.5827 214.259L145.87 214.138L212.158 214.259L245.309 214.323L278.453 214.494L245.309 214.665L212.158 214.729L145.87 214.851L79.5827 214.729L46.4317 214.665L13.2878 214.494Z" fill="#263238"/>
<path d="M266.927 0H27.7781V177.972H266.927V0Z" fill="#37474F"/>
<path d="M254.853 11.5754H39.86V139.375H254.853V11.5754Z" fill="white"/>
<path d="M266.927 151.721H27.7782V177.972H266.927V151.721Z" fill="#C7C7C7"/>
<path d="M198.359 210.054H96.3543V218.579H198.359V210.054Z" fill="#37474F"/>
<path d="M186.206 210.061H108.499L110.474 195.264L110.566 194.565L110.752 193.182L110.844 192.484L111.03 191.094L111.058 190.88L111.122 190.396L111.315 189.006L111.4 188.314L112.783 177.979H181.922L183.219 187.723L183.291 188.193L183.504 189.811L183.561 190.281L183.647 190.88L183.782 191.899L183.839 192.363L184.053 193.988L184.125 194.451L186.206 210.061Z" fill="#C7C7C7"/>
<path d="M254.853 11.5754H39.86V18.4893H254.853V11.5754Z" fill="#263238"/>
<path d="M45.3696 15.0466C45.3696 15.3867 45.2687 15.7191 45.0796 16.0017C44.8906 16.2843 44.6219 16.5045 44.3076 16.6343C43.9933 16.7641 43.6475 16.7977 43.3141 16.7309C42.9807 16.664 42.6746 16.4997 42.4347 16.2587C42.1947 16.0178 42.0317 15.711 41.9662 15.3774C41.9008 15.0437 41.9358 14.6981 42.0669 14.3843C42.198 14.0705 42.4193 13.8028 42.7027 13.6149C42.9861 13.427 43.3189 13.3274 43.659 13.3288C43.8842 13.3288 44.1073 13.3733 44.3153 13.4597C44.5233 13.5462 44.7122 13.6728 44.8711 13.8324C45.0301 13.992 45.1559 14.1814 45.2415 14.3898C45.327 14.5982 45.3706 14.8214 45.3696 15.0466Z" fill="#C7C7C7"/>
<path d="M52.3473 15.0466C52.3473 15.3867 52.2463 15.7191 52.0573 16.0017C51.8682 16.2843 51.5995 16.5045 51.2852 16.6343C50.9709 16.7641 50.6252 16.7977 50.2917 16.7309C49.9583 16.664 49.6523 16.4997 49.4123 16.2587C49.1724 16.0178 49.0093 15.711 48.9439 15.3774C48.8784 15.0437 48.9134 14.6981 49.0445 14.3843C49.1756 14.0705 49.3969 13.8028 49.6803 13.6149C49.9638 13.427 50.2966 13.3274 50.6366 13.3288C50.8619 13.3288 51.0849 13.3733 51.2929 13.4597C51.5009 13.5462 51.6898 13.6728 51.8488 13.8324C52.0077 13.992 52.1336 14.1814 52.2191 14.3898C52.3047 14.5982 52.3482 14.8214 52.3473 15.0466Z" fill="white"/>
<path d="M59.3542 15.0466C59.3542 15.3864 59.2535 15.7185 59.0647 16.0009C58.876 16.2834 58.6077 16.5036 58.2938 16.6336C57.9799 16.7636 57.6345 16.7977 57.3013 16.7314C56.9681 16.6651 56.662 16.5015 56.4218 16.2613C56.1815 16.021 56.0179 15.7149 55.9516 15.3817C55.8854 15.0485 55.9194 14.7031 56.0494 14.3892C56.1794 14.0754 56.3996 13.8071 56.6821 13.6183C56.9646 13.4296 57.2967 13.3288 57.6364 13.3288C58.092 13.3288 58.5289 13.5098 58.8511 13.832C59.1732 14.1541 59.3542 14.591 59.3542 15.0466Z" fill="#FF3F59"/>
<path d="M151.608 163.082C151.607 163.94 151.351 164.778 150.873 165.49C150.395 166.202 149.716 166.756 148.923 167.083C148.13 167.409 147.258 167.493 146.417 167.323C145.576 167.153 144.805 166.738 144.2 166.129C143.596 165.521 143.185 164.746 143.021 163.905C142.857 163.063 142.946 162.191 143.278 161.4C143.609 160.609 144.168 159.934 144.883 159.461C145.599 158.987 146.438 158.737 147.296 158.741C148.443 158.747 149.541 159.207 150.349 160.021C151.157 160.834 151.61 161.935 151.608 163.082Z" fill="#37474F"/>
<path d="M183.647 190.88H111.059L111.123 190.396L111.315 189.006L111.401 188.314L112.784 177.979H181.923L183.22 187.723L183.291 188.193L183.505 189.811L183.562 190.281L183.647 190.88Z" fill="#A6A6A6"/>
<path d="M254.853 18.4821H39.86V47.1284H254.853V18.4821Z" fill="#FF3F59"/>
<path d="M242.408 128.128H155.535V67.0789H242.408V128.128ZM156.248 127.415H241.695V67.7917H156.248V127.415Z" fill="#EBEBEB"/>
<path d="M155.359 66.5392L154.953 67.1237L241.204 127.078L241.61 126.494L155.359 66.5392Z" fill="#EBEBEB"/>
<path d="M156.099 128.064L155.685 127.479C156.512 126.902 238.452 69.702 241.838 67.1502L242.266 67.7204C238.873 70.2793 156.925 127.486 156.099 128.064Z" fill="#EBEBEB"/>
<path d="M188.145 18.4821H106.561V43.5004H188.145V18.4821Z" fill="#263238"/>
<path d="M140.126 55.0045H83.5244V56.1592H140.126V55.0045Z" fill="#EBEBEB"/>
<path d="M127.267 57.9127H83.5244V59.0674H127.267V57.9127Z" fill="#EBEBEB"/>
<path d="M136.733 60.8208H83.5244V61.9755H136.733V60.8208Z" fill="#EBEBEB"/>
<path d="M141.387 63.7289H83.5244V64.8836H141.387V63.7289Z" fill="#EBEBEB"/>
<path d="M113.525 66.637H83.5244V67.7917H113.525V66.637Z" fill="#EBEBEB"/>
<path d="M140.304 69.5522H83.5244V70.7069H140.304V69.5522Z" fill="#EBEBEB"/>
<path d="M130.788 72.4604H83.5244V73.6151H130.788V72.4604Z" fill="#EBEBEB"/>
<path d="M142.934 75.3684H83.5244V76.5231H142.934V75.3684Z" fill="#EBEBEB"/>
<path d="M140.304 78.2766H83.5244V79.4313H140.304V78.2766Z" fill="#EBEBEB"/>
<path d="M142.934 81.1847H83.5244V82.3394H142.934V81.1847Z" fill="#EBEBEB"/>
<path d="M61.0007 26.3155H52.6541V27.4702H61.0007V26.3155Z" fill="white"/>
<path d="M61.0007 29.2236H52.6541V30.3783H61.0007V29.2236Z" fill="white"/>
<path d="M61.0007 32.1317H52.6541V33.2864H61.0007V32.1317Z" fill="white"/>
<path d="M242.052 55.0045H155.892V61.3981H242.052V55.0045Z" fill="#FF3F59"/>
<path d="M79.9889 54.9975H52.6541V82.3394H79.9889V54.9975Z" fill="#A6A6A6"/>
<path d="M66.3249 68.6684C69.0529 68.6684 71.2644 66.4569 71.2644 63.7289C71.2644 61.0009 69.0529 58.7894 66.3249 58.7894C63.5969 58.7894 61.3854 61.0009 61.3854 63.7289C61.3854 66.4569 63.5969 68.6684 66.3249 68.6684Z" fill="white"/>
<path d="M74.8638 77.3643V82.3537H57.7573V77.3643C57.7573 75.0958 58.6584 72.9202 60.2625 71.3162C61.8665 69.7122 64.0421 68.811 66.3106 68.811C68.579 68.811 70.7546 69.7122 72.3586 71.3162C73.9627 72.9202 74.8638 75.0958 74.8638 77.3643Z" fill="white"/>
<path d="M123.632 37.7484V32.759C123.631 32.6975 123.642 32.6365 123.665 32.5795C123.688 32.5225 123.722 32.4705 123.765 32.4267C123.808 32.383 123.86 32.3482 123.916 32.3245C123.973 32.3008 124.034 32.2885 124.095 32.2885H125.3C125.727 32.2885 126.137 32.4583 126.439 32.7604C126.741 33.0625 126.911 33.4722 126.911 33.8994C126.911 34.2498 126.796 34.5906 126.583 34.8688C126.918 35.0761 127.176 35.3871 127.318 35.7545C127.461 36.122 127.479 36.5258 127.371 36.9048C127.263 37.2837 127.035 37.617 126.72 37.8542C126.405 38.0913 126.022 38.2193 125.628 38.2188H124.095C124.034 38.2188 123.973 38.2066 123.916 38.1829C123.86 38.1591 123.808 38.1244 123.765 38.0806C123.722 38.0368 123.688 37.9849 123.665 37.9279C123.642 37.8708 123.631 37.8098 123.632 37.7484ZM124.566 34.5765H125.278C125.46 34.5656 125.63 34.4857 125.755 34.3532C125.88 34.2207 125.949 34.0456 125.948 33.8638C125.948 33.6861 125.878 33.5157 125.752 33.39C125.627 33.2644 125.456 33.1938 125.278 33.1938H124.566V34.5765ZM124.566 37.2708H125.628C125.742 37.2708 125.856 37.2481 125.962 37.2039C126.068 37.1598 126.164 37.0951 126.245 37.0136C126.326 36.9321 126.39 36.8354 126.433 36.7291C126.476 36.6227 126.498 36.5089 126.497 36.3941C126.497 36.1628 126.406 35.9409 126.243 35.7767C126.08 35.6125 125.859 35.5193 125.628 35.5174H124.566V37.2708Z" fill="white"/>
<path d="M128.664 37.7484V32.759C128.663 32.6975 128.674 32.6365 128.697 32.5795C128.72 32.5225 128.754 32.4705 128.797 32.4267C128.84 32.383 128.892 32.3482 128.948 32.3245C129.005 32.3008 129.066 32.2885 129.127 32.2885C129.252 32.2885 129.372 32.3381 129.46 32.4263C129.548 32.5146 129.598 32.6342 129.598 32.759V37.2779H131.9C132.024 37.2816 132.142 37.3336 132.229 37.4227C132.315 37.5119 132.363 37.6313 132.363 37.7555C132.361 37.8778 132.312 37.9946 132.226 38.0811C132.139 38.1676 132.022 38.2169 131.9 38.2188H129.127C129.066 38.2198 129.004 38.2082 128.947 38.1849C128.89 38.1615 128.838 38.1268 128.795 38.0828C128.752 38.0388 128.718 37.9865 128.695 37.929C128.673 37.8715 128.662 37.8101 128.664 37.7484Z" fill="white"/>
<path d="M137.766 33.0227C138.314 33.6 138.619 34.3654 138.619 35.161C138.619 35.9566 138.314 36.722 137.766 37.2993C137.509 37.5814 137.197 37.8073 136.849 37.9631C136.5 38.1189 136.124 38.2011 135.742 38.2045C135.353 38.2032 134.968 38.1222 134.611 37.9665C134.255 37.8109 133.934 37.5838 133.668 37.2993C133.13 36.7172 132.831 35.9537 132.831 35.161C132.831 34.3683 133.13 33.6048 133.668 33.0227C133.932 32.7358 134.252 32.5072 134.609 32.3513C134.967 32.1954 135.352 32.1158 135.742 32.1175C136.124 32.1175 136.502 32.1981 136.851 32.3541C137.2 32.51 137.512 32.7379 137.766 33.0227ZM137.659 35.161C137.658 34.6123 137.452 34.0838 137.082 33.6784C136.91 33.49 136.701 33.3394 136.468 33.2364C136.235 33.1333 135.983 33.0801 135.728 33.0801C135.473 33.0801 135.221 33.1333 134.987 33.2364C134.754 33.3394 134.545 33.49 134.374 33.6784C133.998 34.08 133.791 34.611 133.796 35.161C133.793 35.7086 133.999 36.2367 134.374 36.6364C134.543 36.8289 134.751 36.9831 134.985 37.0887C135.218 37.1944 135.471 37.249 135.728 37.249C135.984 37.249 136.237 37.1944 136.471 37.0887C136.704 36.9831 136.913 36.8289 137.082 36.6364C137.456 36.2367 137.663 35.7086 137.659 35.161Z" fill="white"/>
<path d="M140.033 35.1753C140.036 34.7694 140.12 34.3682 140.279 33.9947C140.438 33.6212 140.669 33.2827 140.959 32.9987C141.249 32.7147 141.592 32.4906 141.969 32.3394C142.346 32.1882 142.749 32.1128 143.155 32.1175C143.853 32.1153 144.533 32.346 145.086 32.7732C145.143 32.8095 145.192 32.8572 145.229 32.9133C145.266 32.9694 145.292 33.0327 145.303 33.0991C145.315 33.1655 145.312 33.2336 145.296 33.2991C145.28 33.3645 145.25 33.4258 145.209 33.4791C145.167 33.5324 145.115 33.5765 145.056 33.6085C144.997 33.6405 144.931 33.6598 144.864 33.6652C144.797 33.6705 144.729 33.6618 144.666 33.6395C144.602 33.6173 144.544 33.582 144.495 33.5359C144.11 33.2415 143.639 33.0813 143.155 33.0797C142.872 33.0772 142.592 33.1306 142.33 33.2371C142.068 33.3435 141.83 33.5008 141.629 33.6998C141.429 33.8878 141.27 34.1147 141.161 34.3666C141.052 34.6186 140.996 34.8901 140.996 35.1646C140.996 35.4391 141.052 35.7106 141.161 35.9625C141.27 36.2144 141.429 36.4414 141.629 36.6293C141.83 36.8284 142.068 36.9857 142.33 37.0921C142.592 37.1985 142.872 37.252 143.155 37.2494C143.563 37.2446 143.963 37.1341 144.316 36.9287V35.7669H143.105C142.977 35.765 142.854 35.7134 142.764 35.6229C142.673 35.5324 142.622 35.4102 142.62 35.2822C142.62 35.2192 142.633 35.1568 142.657 35.0988C142.682 35.0408 142.718 34.9883 142.763 34.9444C142.808 34.9005 142.862 34.8662 142.92 34.8434C142.979 34.8206 143.042 34.8099 143.105 34.8118H144.794C144.857 34.8099 144.92 34.8206 144.978 34.8434C145.037 34.8662 145.091 34.9005 145.136 34.9444C145.181 34.9883 145.217 35.0408 145.241 35.0988C145.266 35.1568 145.279 35.2192 145.279 35.2822V37.1425C145.283 37.19 145.283 37.2376 145.279 37.2851V37.3278C145.246 37.4118 145.189 37.484 145.115 37.5346C144.564 37.9608 143.887 38.1915 143.19 38.1903C142.785 38.2007 142.381 38.1309 142.002 37.9848C141.624 37.8387 141.278 37.6193 140.985 37.3391C140.691 37.059 140.456 36.7236 140.293 36.3522C140.129 35.9809 140.041 35.5809 140.033 35.1753Z" fill="white"/>
<path d="M151.715 35.9094H150.667V37.7484C150.667 37.8731 150.618 37.9928 150.53 38.081C150.441 38.1693 150.322 38.2188 150.197 38.2188C150.072 38.2188 149.952 38.1693 149.864 38.081C149.776 37.9928 149.726 37.8731 149.726 37.7484V32.759C149.726 32.6342 149.776 32.5146 149.864 32.4263C149.952 32.3381 150.072 32.2886 150.197 32.2886H151.715C151.963 32.273 152.211 32.3084 152.445 32.3925C152.678 32.4767 152.892 32.6078 153.073 32.7777C153.254 32.9477 153.398 33.1529 153.497 33.3808C153.596 33.6087 153.646 33.8543 153.646 34.1026C153.646 34.3508 153.596 34.5965 153.497 34.8243C153.398 35.0522 153.254 35.2574 153.073 35.4274C152.892 35.5973 152.678 35.7284 152.445 35.8126C152.211 35.8967 151.963 35.9321 151.715 35.9166V35.9094ZM150.667 35.0042H151.715C151.836 35.0152 151.959 35.0008 152.074 34.9619C152.189 34.923 152.295 34.8605 152.385 34.7783C152.475 34.6962 152.547 34.5962 152.596 34.4847C152.645 34.3733 152.671 34.2528 152.671 34.1311C152.671 34.0093 152.645 33.8888 152.596 33.7774C152.547 33.6659 152.475 33.566 152.385 33.4838C152.295 33.4017 152.189 33.3392 152.074 33.3003C151.959 33.2614 151.836 33.247 151.715 33.2579H150.667V35.0042Z" fill="white"/>
<path d="M159.342 33.0227C159.889 33.6 160.194 34.3654 160.194 35.161C160.194 35.9566 159.889 36.722 159.342 37.2993C159.085 37.5814 158.772 37.8073 158.424 37.9631C158.076 38.1189 157.699 38.2011 157.318 38.2045C156.928 38.2032 156.544 38.1222 156.187 37.9665C155.83 37.8109 155.509 37.5838 155.243 37.2993C154.705 36.7172 154.407 35.9537 154.407 35.161C154.407 34.3683 154.705 33.6048 155.243 33.0227C155.509 32.7382 155.83 32.5111 156.187 32.3555C156.544 32.1998 156.928 32.1188 157.318 32.1175C157.7 32.1174 158.078 32.1981 158.426 32.354C158.775 32.51 159.087 32.7379 159.342 33.0227ZM159.235 35.161C159.233 34.6123 159.027 34.0838 158.658 33.6784C158.486 33.49 158.277 33.3394 158.044 33.2364C157.81 33.1333 157.558 33.0801 157.303 33.0801C157.048 33.0801 156.796 33.1333 156.563 33.2364C156.33 33.3394 156.121 33.49 155.949 33.6784C155.573 34.08 155.366 34.6109 155.372 35.161C155.368 35.7086 155.575 36.2367 155.949 36.6364C156.118 36.8289 156.327 36.9831 156.56 37.0887C156.794 37.1944 157.047 37.249 157.303 37.249C157.56 37.249 157.813 37.1944 158.047 37.0887C158.28 36.9831 158.488 36.8289 158.658 36.6364C159.032 36.2367 159.239 35.7086 159.235 35.161Z" fill="white"/>
<path d="M161.637 36.7434C161.711 36.6529 161.817 36.5953 161.934 36.5833C162.05 36.5713 162.166 36.6058 162.257 36.6792C162.711 37.0668 163.279 37.2968 163.875 37.335C164.253 37.342 164.624 37.2325 164.937 37.0213C165.042 36.9556 165.13 36.8656 165.193 36.759C165.256 36.6523 165.293 36.5321 165.301 36.4084C165.301 36.3124 165.274 36.2184 165.222 36.1375C165.159 36.0349 165.073 35.9474 164.973 35.8809C164.611 35.6841 164.218 35.5514 163.811 35.4889C163.434 35.4246 163.068 35.312 162.72 35.1539C162.401 35.0133 162.127 34.7861 161.929 34.4981C161.801 34.2826 161.734 34.0361 161.737 33.7853C161.745 33.541 161.81 33.302 161.928 33.0878C162.045 32.8735 162.212 32.69 162.414 32.5523C162.844 32.2515 163.358 32.0943 163.882 32.1032C164.556 32.1454 165.201 32.3943 165.728 32.816C165.823 32.8798 165.889 32.9784 165.912 33.0905C165.934 33.2025 165.912 33.319 165.849 33.4147C165.819 33.464 165.779 33.5066 165.732 33.5399C165.684 33.5733 165.631 33.5967 165.574 33.6087C165.517 33.6207 165.459 33.621 165.402 33.6097C165.345 33.5985 165.291 33.5757 165.243 33.543C164.857 33.2259 164.381 33.0366 163.882 33.0013C163.544 32.9935 163.212 33.0933 162.934 33.2864C162.844 33.3454 162.768 33.4242 162.712 33.5168C162.657 33.6094 162.623 33.7134 162.613 33.821C162.608 33.9034 162.627 33.9856 162.67 34.0562C162.73 34.1452 162.808 34.2205 162.898 34.2772C163.224 34.4725 163.585 34.6009 163.961 34.6549C164.364 34.7211 164.757 34.8409 165.129 35.0113C165.475 35.1617 165.77 35.4093 165.978 35.7241C166.108 35.9388 166.177 36.1854 166.177 36.4369C166.172 36.6966 166.105 36.9514 165.981 37.1797C165.857 37.408 165.68 37.6031 165.464 37.7484C165.007 38.0731 164.457 38.2429 163.896 38.233C163.11 38.1898 162.36 37.892 161.758 37.3848C161.707 37.3519 161.662 37.3087 161.628 37.258C161.594 37.2074 161.571 37.1503 161.559 37.0902C161.548 37.0302 161.549 36.9684 161.562 36.9088C161.576 36.8491 161.601 36.7928 161.637 36.7434Z" fill="white"/>
<path d="M170.974 33.2223H169.627V37.7484C169.627 37.8712 169.578 37.9891 169.491 38.076C169.404 38.1629 169.287 38.2117 169.164 38.2117C169.041 38.2117 168.923 38.1629 168.836 38.076C168.749 37.9891 168.7 37.8712 168.7 37.7484V33.2223H167.36C167.236 33.2204 167.118 33.1703 167.03 33.0824C166.942 32.9946 166.892 32.876 166.89 32.7518C166.889 32.6898 166.901 32.6282 166.924 32.5707C166.947 32.5132 166.982 32.4609 167.026 32.417C167.07 32.3732 167.122 32.3386 167.179 32.3153C167.237 32.292 167.298 32.2804 167.36 32.2814H170.974C171.099 32.2814 171.219 32.331 171.307 32.4192C171.395 32.5074 171.445 32.6271 171.445 32.7518C171.443 32.876 171.393 32.9946 171.305 33.0824C171.217 33.1703 171.098 33.2204 170.974 33.2223Z" fill="white"/>
<path d="M179.891 39.9865H114.808V40.8489H179.891V39.9865Z" fill="white"/>
<path d="M94.4725 86.3095H52.6541V128.128H94.4725V86.3095Z" fill="#EBEBEB"/>
<path d="M52.654 115.583H94.4652V86.3024H52.654L52.654 115.583Z" fill="#EBEBEB"/>
<path d="M57.5436 94.6275C57.5436 95.3126 57.7467 95.9824 58.1274 96.552C58.508 97.1217 59.049 97.5657 59.682 97.8279C60.315 98.0901 61.0115 98.1587 61.6835 98.025C62.3554 97.8914 62.9727 97.5614 63.4571 97.077C63.9416 96.5925 64.2715 95.9753 64.4052 95.3033C64.5388 94.6314 64.4702 93.9349 64.208 93.3019C63.9458 92.6689 63.5019 92.1279 62.9322 91.7472C62.3625 91.3666 61.6928 91.1634 61.0077 91.1634C60.5525 91.1625 60.1016 91.2515 59.6809 91.4252C59.2602 91.599 58.8779 91.8541 58.5561 92.176C58.2342 92.4978 57.9791 92.8801 57.8054 93.3008C57.6316 93.7215 57.5426 94.1723 57.5436 94.6275Z" fill="#DBDBDB"/>
<path d="M71.2218 109.218H94.4724L82.8471 93.4586L71.2218 109.218Z" fill="#C7C7C7"/>
<path d="M62.1053 109.289H81.3002L71.7063 99.0325L62.1053 109.289Z" fill="#DBDBDB"/>
<path d="M94.4653 109.275H52.6541V115.583H94.4653V109.275Z" fill="#DBDBDB"/>
<path d="M91.5074 118.491H55.6265V119.646H91.5074V118.491Z" fill="white"/>
<path d="M80.4879 121.399H55.6265V122.554H80.4879V121.399Z" fill="white"/>
<path d="M85.8622 124.307H55.6265V125.462H85.8622V124.307Z" fill="white"/>
<path d="M142.934 86.3095H101.115V128.128H142.934V86.3095Z" fill="#EBEBEB"/>
<path d="M101.115 115.583H142.927V86.3024H101.115V115.583Z" fill="#DBDBDB"/>
<path d="M122.021 109.289C126.415 109.289 129.976 105.728 129.976 101.335C129.976 96.9415 126.415 93.3802 122.021 93.3802C117.628 93.3802 114.067 96.9415 114.067 101.335C114.067 105.728 117.628 109.289 122.021 109.289Z" fill="#EBEBEB"/>
<path d="M118.215 97.0153V105.654L127.36 101.335L118.215 97.0153Z" fill="white"/>
<path d="M139.969 118.491H104.088V119.646H139.969V118.491Z" fill="white"/>
<path d="M128.949 121.399H104.088V122.554H128.949V121.399Z" fill="white"/>
<path d="M134.323 124.307H104.088V125.462H134.323V124.307Z" fill="white"/>
<path d="M242.088 26.3155H199.186V33.2864H242.088V26.3155Z" fill="white"/>
<path d="M242.088 26.3155H235.117V33.2864H242.088V26.3155Z" fill="#263238"/>
<path d="M238.83 29.132L238.188 29.6184L240.164 32.2261L240.806 31.7397L238.83 29.132Z" fill="white"/>
<path d="M239.543 28.0476C239.752 28.3233 239.876 28.6548 239.897 29.0005C239.918 29.3461 239.837 29.6904 239.663 29.9898C239.489 30.2891 239.23 30.5303 238.919 30.6828C238.608 30.8353 238.259 30.8924 237.916 30.8467C237.572 30.8011 237.25 30.6548 236.99 30.4264C236.73 30.1979 236.543 29.8975 236.453 29.5631C236.364 29.2286 236.375 28.875 236.486 28.547C236.597 28.2189 236.802 27.9311 237.077 27.7197C237.447 27.4365 237.915 27.312 238.378 27.3734C238.84 27.4349 239.259 27.6774 239.543 28.0476Z" fill="white"/>
<path d="M238.987 28.4752C239.114 28.6404 239.19 28.8399 239.205 29.0483C239.219 29.2566 239.171 29.4646 239.067 29.6457C238.963 29.8269 238.808 29.9731 238.621 30.0658C238.433 30.1586 238.223 30.1936 238.016 30.1666C237.809 30.1396 237.614 30.0517 237.457 29.9141C237.3 29.7764 237.187 29.5953 237.133 29.3935C237.079 29.1917 237.086 28.9785 237.154 28.7807C237.221 28.583 237.345 28.4097 237.511 28.2828C237.733 28.1133 238.012 28.0385 238.289 28.0745C238.565 28.1106 238.816 28.2546 238.987 28.4752Z" fill="#263238"/>
<path d="M124.366 244.83C123.012 245.279 84.4506 245.165 82.9538 244.238C82.3978 243.889 82.0842 238.258 81.906 231.458C81.8633 229.99 81.8348 228.479 81.8062 226.932C81.8062 225.108 81.7563 223.261 81.7421 221.465C81.6993 213.404 81.8062 206.305 81.8062 206.305H106.931V221.465V226.932L106.803 231.458C106.803 231.458 121.558 238.116 123.054 239.299C124.551 240.482 125.713 244.388 124.366 244.83Z" fill="#F7A9A0"/>
<path d="M124.366 244.83C123.012 245.279 84.451 245.165 82.9542 244.238C82.3982 243.889 82.0846 238.258 81.9064 231.458C81.8636 229.99 81.8351 228.479 81.8066 226.932C81.8066 225.108 81.7567 223.261 81.7425 221.465H106.918V226.932L106.789 231.458C106.789 231.458 121.544 238.116 123.04 239.299C124.537 240.482 125.713 244.388 124.366 244.83Z" fill="white"/>
<path d="M124.487 244.887C123.61 245.179 107.174 245.236 95.2064 244.987C92.4338 244.93 89.9034 244.851 87.8578 244.766C85.0423 244.637 83.1535 244.481 82.8684 244.288C82.1912 243.853 81.8634 235.6 81.7137 226.889H106.953L106.825 231.437C106.825 231.437 121.636 238.144 123.147 239.334C124.658 240.525 125.834 244.438 124.487 244.887Z" fill="#FF3F59"/>
<path d="M123.931 243.333C117.424 243.155 91.1439 243.048 84.7289 243.369C84.6791 243.369 84.6791 243.404 84.7289 243.411C91.1439 243.725 117.424 243.618 123.931 243.411C124.067 243.44 124.067 243.34 123.931 243.333Z" fill="#263238"/>
<path d="M107.723 229.997C105.164 229.512 102.02 229.897 100.067 231.715C99.9961 231.786 100.067 231.893 100.181 231.865C102.628 231.077 105.151 230.554 107.708 230.304C107.74 230.293 107.768 230.274 107.788 230.247C107.808 230.221 107.82 230.189 107.821 230.155C107.823 230.122 107.814 230.089 107.797 230.061C107.779 230.032 107.753 230.01 107.723 229.997Z" fill="#263238"/>
<path d="M109.569 231.116C107.01 230.631 103.867 231.016 101.914 232.834C101.836 232.905 101.914 233.012 102.021 232.984C104.47 232.204 106.996 231.688 109.555 231.444C109.576 231.445 109.598 231.442 109.618 231.434C109.638 231.427 109.657 231.416 109.673 231.401C109.689 231.386 109.702 231.369 109.711 231.349C109.72 231.33 109.725 231.309 109.726 231.287C109.727 231.266 109.724 231.244 109.716 231.224C109.709 231.204 109.698 231.185 109.683 231.169C109.668 231.153 109.651 231.14 109.631 231.131C109.612 231.122 109.591 231.117 109.569 231.116Z" fill="#263238"/>
<path d="M111.408 232.235C108.849 231.751 105.706 232.135 103.76 233.953C103.681 234.024 103.76 234.131 103.867 234.103C106.316 233.323 108.842 232.807 111.401 232.563C111.444 232.564 111.486 232.548 111.518 232.518C111.549 232.488 111.567 232.446 111.568 232.403C111.569 232.359 111.553 232.317 111.523 232.286C111.493 232.254 111.451 232.236 111.408 232.235Z" fill="#263238"/>
<path d="M113.254 233.354C110.695 232.87 107.552 233.255 105.606 235.072C105.527 235.143 105.606 235.25 105.713 235.222C108.16 234.443 110.683 233.924 113.239 233.675C113.277 233.669 113.311 233.65 113.336 233.622C113.361 233.594 113.375 233.558 113.377 233.52C113.379 233.483 113.367 233.446 113.345 233.415C113.323 233.385 113.29 233.364 113.254 233.354Z" fill="#263238"/>
<path d="M112.463 224.095C111.465 222.67 109.612 223.326 108.521 224.217C106.708 225.784 105.341 227.803 104.558 230.068C104.555 230.079 104.554 230.09 104.556 230.101C104.557 230.111 104.561 230.121 104.567 230.13C104.574 230.139 104.582 230.147 104.591 230.152C104.601 230.157 104.611 230.16 104.622 230.161C104.621 230.211 104.631 230.26 104.652 230.305C104.672 230.35 104.703 230.39 104.742 230.421C104.781 230.452 104.826 230.474 104.875 230.484C104.923 230.495 104.973 230.494 105.021 230.482C107.16 229.705 109.491 229.135 111.308 227.738C112.37 226.918 113.411 225.407 112.463 224.095ZM107.987 228.65C106.953 229.056 105.912 229.413 104.893 229.855C105.632 228.694 106.429 227.571 107.281 226.49C107.702 225.985 108.157 225.509 108.642 225.065C109.405 224.352 112.427 222.926 111.964 225.713C111.714 227.224 109.213 228.165 107.987 228.65Z" fill="#263238"/>
<path d="M98.0577 229.384C100.196 230.289 102.591 230.247 104.829 230.475C104.879 230.475 104.928 230.463 104.973 230.44C105.018 230.418 105.056 230.385 105.086 230.345C105.116 230.305 105.136 230.258 105.144 230.209C105.153 230.16 105.15 230.109 105.136 230.061C105.146 230.058 105.155 230.052 105.163 230.044C105.17 230.036 105.176 230.027 105.18 230.017C105.183 230.006 105.184 229.995 105.183 229.984C105.181 229.974 105.177 229.963 105.171 229.954C103.848 227.959 102.024 226.347 99.8824 225.279C98.6208 224.68 96.6464 224.566 96.0263 226.141C95.4062 227.716 96.8246 228.878 98.0577 229.384ZM96.903 227.552C95.7626 224.951 99.0413 225.614 99.9608 226.091C100.557 226.412 101.13 226.771 101.679 227.167C102.805 227.973 103.817 228.928 104.829 229.833C103.739 229.655 102.634 229.577 101.536 229.441C100.189 229.277 97.5374 228.992 96.903 227.552Z" fill="#263238"/>
<path d="M73.431 99.2535C73.431 99.2535 80.2166 166.404 80.3806 167.252C80.3806 167.366 80.4518 168.677 80.516 170.766C80.8795 182.327 81.7847 218.372 81.7847 218.372H109.519C109.519 218.372 107.715 175.677 106.668 165.719C105.342 153.018 97.0095 99.2535 97.0095 99.2535H73.431Z" fill="#455A64"/>
<path d="M83.6808 169.625C82.8254 155.071 81.5401 140.554 79.8247 126.075C78.8553 117.914 77.6864 109.788 76.5245 101.655C76.5245 101.584 76.3962 101.584 76.4105 101.655C78.5488 116.132 80.0741 130.722 81.3999 145.291C82.7257 159.86 83.6237 174.429 84.2153 189.034C84.5575 197.309 84.807 205.585 85.0778 213.86C85.0854 213.895 85.1047 213.926 85.1326 213.949C85.1605 213.971 85.1952 213.984 85.231 213.984C85.2669 213.984 85.3016 213.971 85.3295 213.949C85.3574 213.926 85.3767 213.895 85.3843 213.86C84.9709 199.106 84.5717 184.351 83.6808 169.625Z" fill="#263238"/>
<path d="M107.737 213.91C106.988 213.84 106.237 213.809 105.485 213.817C104.658 213.817 103.824 213.782 102.99 213.746C101.389 213.689 99.7848 213.649 98.1787 213.625C94.9427 213.568 91.6996 213.589 88.4708 213.689L85.805 213.782C84.857 213.817 83.9019 213.903 82.9539 213.903C82.8826 213.903 82.8897 213.988 82.9539 213.988C84.579 213.988 86.2255 214.124 87.8578 214.188C89.49 214.252 91.0652 214.273 92.669 214.295C95.8978 214.338 99.1481 214.295 102.377 214.195C103.261 214.195 104.152 214.145 105.043 214.117L106.468 214.06C106.889 214.067 107.31 214.052 107.73 214.017C107.738 214.02 107.747 214.022 107.757 214.022C107.766 214.021 107.775 214.018 107.782 214.013C107.79 214.009 107.797 214.002 107.802 213.994C107.806 213.986 107.809 213.978 107.81 213.968C107.81 213.959 107.809 213.95 107.805 213.942C107.801 213.933 107.796 213.926 107.789 213.92C107.781 213.914 107.773 213.911 107.764 213.909C107.755 213.907 107.746 213.907 107.737 213.91Z" fill="#263238"/>
<path d="M73.431 99.2535C73.431 99.2535 80.2166 166.404 80.3806 167.252C80.3806 167.366 80.4518 168.677 80.516 170.766L93.574 99.2535H73.431Z" fill="#263238"/>
<path d="M26.7165 226.74C25.4905 226.027 0.343934 196.725 0.115847 195C0.0160589 194.344 4.07173 190.438 9.1039 185.862C10.1873 184.864 11.2422 183.795 12.4682 182.826C13.965 181.607 15.4832 180.395 16.9586 179.262C23.3736 174.273 28.9261 170.338 28.9261 170.338L44.8708 188.82L33.5235 198.051L28.8691 201.843L25.3551 204.694C25.3551 204.694 29.9596 220.211 30.0309 222.128C30.1022 224.045 27.9353 227.453 26.7165 226.74Z" fill="#F7A9A0"/>
<path d="M26.7165 226.74C25.4905 226.027 0.343934 196.725 0.115847 195C0.0160589 194.344 4.07173 190.438 9.1039 185.862C10.1873 184.864 11.2422 183.795 12.4682 182.826C13.965 181.607 15.4832 180.395 16.9586 179.262C21.8981 184.964 29.0758 193.026 33.5234 198.051L28.8691 201.843L25.3551 204.694C25.3551 204.694 29.9596 220.211 30.0309 222.128C30.1021 224.046 27.9353 227.453 26.7165 226.74Z" fill="white"/>
<path d="M26.7519 226.875C25.5259 226.162 0.258188 196.689 0.00159033 194.957C-0.112453 194.152 5.92472 188.542 12.4252 182.712L28.9116 201.793L25.3477 204.644C25.3477 204.644 29.9736 220.246 30.052 222.178C30.1304 224.11 27.9779 227.609 26.7519 226.875Z" fill="#FF3F59"/>
<path d="M27.5502 225.443C23.4375 220.396 6.3666 200.453 1.89039 195.784C1.85475 195.748 1.82624 195.784 1.89039 195.784C5.8534 200.866 23.0882 220.674 27.4718 225.478C27.5502 225.614 27.65 225.542 27.5502 225.443Z" fill="#263238"/>
<path d="M27.0728 204.459C25.7755 202.199 23.4376 200.082 20.779 199.783C20.6721 199.783 20.6578 199.918 20.7362 199.968C22.9316 201.304 24.9771 202.871 26.8375 204.644C26.8656 204.659 26.8973 204.665 26.9288 204.662C26.9604 204.659 26.9904 204.647 27.0153 204.627C27.0402 204.608 27.0588 204.582 27.069 204.552C27.0792 204.522 27.0805 204.489 27.0728 204.459Z" fill="#263238"/>
<path d="M27.4362 206.583C26.1318 204.33 23.7939 202.206 21.1353 201.914C21.0355 201.914 21.0212 202.049 21.0925 202.092C23.2834 203.433 25.3241 205.006 27.1796 206.782C27.2079 206.81 27.2454 206.827 27.2851 206.829C27.3248 206.832 27.364 206.819 27.3954 206.795C27.4268 206.771 27.4483 206.736 27.4558 206.696C27.4633 206.657 27.4563 206.617 27.4362 206.583Z" fill="#263238"/>
<path d="M27.7924 208.714C26.4881 206.454 24.1502 204.337 21.4915 204.038C21.3918 204.038 21.3775 204.173 21.4488 204.223C23.6464 205.564 25.6922 207.139 27.5501 208.92C27.5799 208.942 27.616 208.953 27.6527 208.951C27.6894 208.95 27.7245 208.936 27.7524 208.912C27.7804 208.888 27.7995 208.856 27.8068 208.82C27.814 208.784 27.809 208.747 27.7924 208.714Z" fill="#263238"/>
<path d="M28.1487 210.838C26.8444 208.585 24.5065 206.461 21.8478 206.169C21.7481 206.169 21.7338 206.305 21.8051 206.347C23.9991 207.695 26.0421 209.275 27.8993 211.059C27.9138 211.075 27.9314 211.088 27.951 211.098C27.9707 211.108 27.9921 211.113 28.0139 211.115C28.0358 211.116 28.0577 211.113 28.0783 211.106C28.099 211.099 28.1181 211.087 28.1345 211.073C28.1509 211.058 28.1642 211.041 28.1738 211.021C28.1834 211.002 28.189 210.98 28.1903 210.958C28.1916 210.936 28.1887 210.915 28.1815 210.894C28.1744 210.873 28.1632 210.854 28.1487 210.838Z" fill="#263238"/>
<path d="M34.6778 204.188C35.0698 202.527 33.3805 201.508 32.0049 201.28C29.6326 200.937 27.2119 201.222 24.9841 202.106C24.9765 202.113 24.9704 202.121 24.9663 202.13C24.9621 202.14 24.9599 202.15 24.9599 202.16C24.9599 202.17 24.9621 202.18 24.9663 202.189C24.9704 202.198 24.9765 202.207 24.9841 202.213C24.9442 202.243 24.9119 202.282 24.8896 202.326C24.8674 202.371 24.8558 202.42 24.8558 202.47C24.8558 202.52 24.8674 202.569 24.8896 202.613C24.9119 202.658 24.9442 202.697 24.9841 202.726C26.9585 203.824 28.9257 205.235 31.1781 205.692C32.4468 205.962 34.2715 205.763 34.6778 204.188ZM28.2628 203.774C27.2792 203.261 26.3312 202.698 25.3333 202.22C26.7019 202.064 28.0561 201.85 29.4389 201.828C30.1052 201.808 30.772 201.834 31.4347 201.907C32.4539 202.035 35.5402 203.332 33.1097 204.843C31.7839 205.663 29.4389 204.387 28.2628 203.774Z" fill="#263238"/>
<path d="M21.2281 196.732C21.9409 198.92 23.5304 200.731 24.8276 202.577C24.8602 202.615 24.9011 202.644 24.9472 202.664C24.9933 202.683 25.0433 202.691 25.0932 202.688C25.143 202.684 25.1914 202.669 25.2344 202.644C25.2774 202.618 25.3138 202.583 25.3408 202.541C25.355 202.544 25.3697 202.542 25.3827 202.536C25.3956 202.529 25.406 202.519 25.4121 202.505C26.0603 200.199 26.0898 197.763 25.4976 195.442C25.127 194.095 23.9367 192.52 22.3258 193.09C20.7149 193.66 20.8218 195.456 21.2281 196.732ZM21.8482 194.665C23.0671 192.092 24.6993 195.021 24.9488 196.026C25.0866 196.678 25.1819 197.337 25.2339 198.001C25.3194 199.375 25.3337 200.752 25.2767 202.128C24.6922 201.18 24.0364 200.296 23.4235 199.369C22.7036 198.279 21.1854 196.091 21.8482 194.665Z" fill="#263238"/>
<path d="M96.9739 99.2534C96.9739 99.2534 95.2704 109.41 88.7414 114.649C88.7414 114.649 73.424 161.101 69.9884 166.076C64.2862 174.315 35.9322 196.148 35.9322 196.148L17.614 174.907C17.614 174.907 45.1127 155.37 47.2653 152.398C48.6908 150.423 59.4251 120.551 59.2327 119.518C57.0088 107.201 62.5685 99.2249 62.5685 99.2249L96.9739 99.2534Z" fill="#455A64"/>
<path d="M64.7353 101.064C63.5224 103.515 62.6564 106.122 62.1622 108.812C61.9276 110.17 61.806 111.546 61.7987 112.924C61.7987 114.407 61.9555 115.882 62.0054 117.358C62.0679 118.869 61.9143 120.381 61.5492 121.848C61.2 123.274 60.7581 124.699 60.3375 126.082C59.4679 128.933 58.5461 131.784 57.572 134.635C55.6332 140.295 53.4949 145.876 51.157 151.378C50.6734 152.67 49.9825 153.873 49.1114 154.942C48.0968 155.962 46.9843 156.878 45.7898 157.679L38.3913 163.225L23.5086 174.394V174.429C23.3447 174.551 23.5086 174.829 23.6797 174.707C28.6691 170.98 31.8124 168.606 36.8018 164.878L44.3501 159.24C45.5404 158.349 46.7521 157.48 47.9139 156.56C48.9401 155.785 49.8046 154.817 50.4585 153.709C51.1089 152.489 51.6826 151.23 52.1763 149.939C52.7608 148.513 53.3381 147.137 53.8941 145.733C54.9917 142.982 56.0371 140.212 57.0303 137.422C58.0234 134.633 58.9737 131.782 59.8813 128.869C60.3304 127.444 60.7723 125.975 61.2 124.528C61.646 123.145 61.9984 121.733 62.2549 120.302C62.6968 117.372 62.0482 114.414 62.1907 111.47C62.3124 108.622 62.89 105.811 63.9014 103.145C64.1703 102.453 64.4748 101.775 64.8137 101.114C64.8636 101.05 64.7638 100.993 64.7353 101.064Z" fill="#263238"/>
<path d="M74.2866 101.413C73.8044 103.377 72.693 105.129 71.1219 106.403C69.3794 107.769 67.2766 108.599 65.0705 108.79C64.6998 108.84 64.6927 109.403 65.0705 109.389C69.5823 109.211 74.0086 106.117 74.4577 101.406C74.479 101.292 74.308 101.292 74.2866 101.413Z" fill="#263238"/>
<path d="M92.9255 111.378C91.3196 112.112 89.7954 113.012 88.378 114.065C86.8741 115.098 85.4913 116.282 84.0443 117.386C84.0345 117.396 84.0283 117.408 84.0269 117.422C84.0255 117.435 84.029 117.449 84.0367 117.46C84.0445 117.471 84.056 117.479 84.0691 117.483C84.0823 117.486 84.0963 117.485 84.1085 117.479C85.6338 116.51 87.2304 115.654 88.7415 114.628C90.2569 113.706 91.6879 112.651 93.0182 111.478C93.0223 111.464 93.0229 111.45 93.0198 111.437C93.0168 111.423 93.0102 111.411 93.0008 111.401C92.9914 111.391 92.9795 111.383 92.9662 111.379C92.953 111.375 92.939 111.375 92.9255 111.378Z" fill="#263238"/>
<path d="M93.1251 101.948C92.9326 102.988 92.676 104.022 92.455 105.063C92.2341 106.103 92.0844 107.03 91.8278 107.992C91.6164 108.924 91.1443 109.777 90.4664 110.451C90.0815 110.807 89.661 111.121 89.2547 111.442C89.0337 111.62 88.7985 111.791 88.5419 111.969C88.5419 111.827 88.5918 111.691 88.6203 111.549C88.6845 111.15 88.7558 110.75 88.8199 110.358C88.9696 109.475 89.1121 108.598 89.2404 107.714C89.5113 105.982 89.7536 104.229 90.1172 102.511C90.1172 102.447 90.0245 102.418 90.0031 102.511C89.5754 104.207 89.0979 105.889 88.7201 107.607C88.5348 108.448 87.8791 112.597 87.8505 112.896C87.822 113.195 87.7935 113.502 87.7864 113.808C87.7436 114.116 87.7436 114.427 87.7864 114.735C87.7864 114.813 87.8933 114.799 87.9218 114.735C88.0461 114.447 88.1346 114.146 88.1855 113.837C88.264 113.537 88.3281 113.238 88.3851 112.939C88.3851 112.832 88.3851 112.718 88.435 112.604C88.8413 112.361 89.2191 112.026 89.604 111.755C89.9889 111.485 90.4379 111.164 90.8228 110.836C91.5464 110.229 92.0684 109.416 92.3196 108.505C92.5699 107.526 92.7321 106.527 92.8043 105.519C92.9397 104.343 93.0324 103.152 93.1963 101.955C93.1871 101.946 93.1749 101.94 93.162 101.939C93.149 101.937 93.136 101.941 93.1251 101.948Z" fill="#263238"/>
<path d="M38.5124 192.035C38.1061 191.422 37.5715 190.852 37.0868 190.274C36.6021 189.697 36.0177 188.999 35.4973 188.35C34.4923 187.095 33.4731 185.862 32.4395 184.629C30.401 182.156 28.2627 179.697 26.046 177.345C25.4401 176.689 24.8343 176.04 24.2213 175.392C23.6083 174.743 22.8884 174.037 22.2683 173.318C22.2255 173.268 22.1614 173.318 22.2041 173.382C23.2804 174.601 24.2498 175.948 25.2691 177.209C26.2883 178.471 27.3076 179.69 28.3482 180.916C30.4295 183.389 32.5821 185.82 34.7632 188.179C35.3762 188.827 35.9678 189.49 36.5736 190.146C36.8944 190.495 37.2222 190.859 37.5501 191.18C37.878 191.5 38.0918 191.828 38.4126 192.113C38.423 192.127 38.4382 192.135 38.4549 192.137C38.4716 192.139 38.4884 192.134 38.5017 192.124C38.5149 192.114 38.5235 192.098 38.5255 192.082C38.5275 192.065 38.5228 192.048 38.5124 192.035Z" fill="#263238"/>
<path d="M88.5989 83.9217C86.8204 84.7359 84.9552 85.3456 83.0393 85.7393C86.7386 81.9616 88.7985 71.8759 88.1285 73.223C84.9281 79.638 78.8125 86.0529 77.0947 86.0529C72.9249 85.516 69.0437 83.6342 66.0397 80.6929C70.6442 76.5232 73.0034 66.3377 72.6185 66.9007C68.513 72.9094 62.4402 75.5182 61.5563 75.2901C59.0474 71.3413 58.078 67.7775 58.6197 67.5708C62.597 66.0953 66.9734 60.8351 71.1431 55.1614C75.2629 49.5733 78.0213 43.978 83.0321 39.3165C87.6081 35.0399 94.5006 35.717 97.6297 39.2452C105.819 48.4756 91.115 82.7599 88.5989 83.9217Z" fill="#263238"/>
<path d="M89.1193 37.4276C86.2183 37.4276 83.3458 39.3593 81.343 41.3265C78.6772 43.9495 76.5603 47.1356 74.1796 50.0081C69.5532 55.6987 64.0679 60.6333 57.9213 64.6341C57.8929 64.6502 57.8721 64.6769 57.8634 64.7083C57.8547 64.7397 57.8589 64.7733 57.8749 64.8016C57.891 64.83 57.9177 64.8508 57.9491 64.8595C57.9805 64.8682 58.0141 64.864 58.0425 64.848C64.3434 62.1466 69.404 57.2926 73.8446 52.1179C76.1112 49.4664 78.1212 46.601 80.2595 43.8996C81.4282 42.3921 82.7975 41.0516 84.3295 39.9152C85.7881 38.938 87.4296 38.2664 89.1549 37.9408C89.2122 37.9236 89.262 37.8874 89.296 37.8382C89.33 37.789 89.3463 37.7297 89.3421 37.67C89.338 37.6103 89.3136 37.5538 89.2732 37.5098C89.2327 37.4657 89.1784 37.4368 89.1193 37.4276Z" fill="#263238"/>
<path d="M89.0769 67.7133C91.0156 71.7262 104.473 84.5704 115.542 88.5547C119.605 90.0159 137.125 85.8106 141.273 84.0572C146.127 81.9973 142.898 69.8873 139.798 69.9015C135.92 69.9015 119.306 73.9002 115.756 73.8146C111.437 73.7077 101.415 67.1075 92.8973 63.7931C88.5066 62.0895 87.58 64.6128 89.0769 67.7133Z" fill="#F7A9A0"/>
<path d="M141.273 84.0572C142.834 83.4869 149.762 80.2367 151.487 78.9038C153.212 77.5709 157.902 73.3727 157.018 71.9472C156.134 70.5216 154.659 71.6407 154.659 71.6407C154.659 71.6407 156.355 69.5522 155.329 68.198C154.303 66.8437 152.079 68.6613 152.079 68.6613C152.079 68.6613 153.661 66.3947 152.549 65.0974C151.437 63.8002 149.491 66.0169 149.491 66.0169C149.491 66.0169 151.038 64.014 149.677 63.3511C148.037 62.5457 145.6 66.5729 143.582 67.9057C143.126 68.2051 133.867 73.3656 133.867 73.3656L141.273 84.0572Z" fill="#F7A9A0"/>
<path d="M149.662 65.853C147.859 68.811 146.562 69.7946 143.511 71.3057C143.454 71.3057 143.511 71.434 143.547 71.4055C146.669 70.1938 148.479 69.203 149.805 65.9385C149.876 65.7746 149.748 65.7176 149.662 65.853Z" fill="#263238"/>
<path d="M152.214 68.4261C150.076 71.3342 148.65 72.4105 145.599 74.228C145.557 74.228 145.599 74.3349 145.642 74.3135C148.807 72.774 150.589 71.7405 152.342 68.5544C152.421 68.4118 152.285 68.2906 152.214 68.4261Z" fill="#263238"/>
<path d="M154.495 71.7262C152.221 74.392 150.738 75.6393 147.524 77.0221C147.516 77.0249 147.509 77.0293 147.502 77.0349C147.496 77.0405 147.491 77.0474 147.487 77.055C147.484 77.0626 147.482 77.0708 147.481 77.0793C147.481 77.0877 147.482 77.0961 147.485 77.1041C147.487 77.112 147.492 77.1194 147.497 77.1256C147.503 77.1319 147.51 77.137 147.518 77.1407C147.525 77.1443 147.533 77.1464 147.542 77.1469C147.55 77.1473 147.559 77.1461 147.567 77.1433C150.513 76.3545 153.031 74.4364 154.573 71.8046C154.687 71.6193 154.637 71.5623 154.495 71.7262Z" fill="#263238"/>
<path d="M131.123 72.8666C132.433 71.233 133.862 69.6987 135.399 68.2764C136.925 67.0575 144.274 64.6127 144.894 66.1381C145.692 68.1481 141.729 70.4147 139.64 71.2415C139.64 71.2415 141.494 75.8888 138.992 78.1198C136.49 80.3507 131.123 72.8666 131.123 72.8666Z" fill="#F7A9A0"/>
<path d="M144.908 66.7938C144.31 69.1531 141.501 70.0868 139.541 71.0705C139.512 71.0833 139.486 71.1031 139.466 71.1281C139.446 71.1531 139.432 71.1826 139.426 71.2141C139.419 71.2456 139.421 71.2781 139.43 71.309C139.439 71.3398 139.455 71.368 139.477 71.3912C140.118 73.3941 140.446 76.3806 139.106 78.1697C139.064 78.2196 139.106 78.2837 139.178 78.2409C140.881 76.5374 140.796 73.558 139.947 71.4126C141.979 70.4432 144.751 69.3812 144.937 66.8081C144.93 66.7867 144.908 66.7796 144.908 66.7938Z" fill="#263238"/>
<path d="M123.589 72.6671C123.589 72.6671 126.155 71.8973 126.39 72.6101C126.626 73.3228 125.314 74.3492 125.314 74.3492C125.314 74.3492 127.103 74.3492 127.331 75.4825C127.559 76.6158 125.685 77.3357 125.685 77.3357C125.685 77.3357 127.623 77.8917 127.688 78.6971C127.773 79.7805 126.119 80.3508 126.119 80.3508C126.119 80.3508 128.001 80.5004 128.072 81.5625C128.144 82.6245 126.433 83.1448 126.433 83.1448C126.433 83.1448 128.415 83.3943 128.607 84.1926C128.828 85.1406 126.882 85.9888 126.882 85.9888C126.882 85.9888 128.757 86.2953 128.871 87.115C128.985 87.9346 127.132 88.6118 126.162 88.6189L123.589 72.6671Z" fill="white"/>
<path d="M126.49 88.7543C126.49 88.7543 116.975 89.296 115.635 88.8185C114.176 88.2936 112.748 87.6868 111.358 87.0009C100.816 81.8618 92.4624 72.8524 89.9107 69.5523C87.2236 66.0668 87.2164 61.8686 91.7425 63.1801C92.0775 63.2799 92.4553 63.4082 92.8188 63.565C98.407 65.8815 113.796 73.4583 115.392 73.5794C116.989 73.7006 124.081 72.3036 124.081 72.3036L126.49 88.7543Z" fill="#FF3F59"/>
<path d="M111.344 87.0366C100.802 81.8975 92.4481 72.888 89.8963 69.5879C87.2092 66.1025 87.2021 61.9042 91.7282 63.2157L111.344 87.0366Z" fill="#263238"/>
<path d="M98.3353 90.0943L98.5207 106.431C96.5312 106.542 94.5371 106.542 92.5476 106.431C87.2943 106.184 82.0591 105.641 76.8667 104.806C71.7276 104.001 65.6761 102.832 58.7266 101.135C58.7266 101.135 71.1003 72.2109 80.8225 63.5864C81.0459 63.3868 81.2668 63.2015 81.4854 63.0304L81.6137 62.9235C86.0686 59.4238 90.5804 61.3411 93.3459 64.4631C94.0587 65.24 101.186 77.8988 101.379 82.3679C101.514 86.3238 98.3353 90.0943 98.3353 90.0943Z" fill="#FF3F59"/>
<path d="M92.5479 106.445C87.2945 106.198 82.0593 105.655 76.8669 104.82C77.5797 97.2007 80.0173 71.3199 80.8014 63.6006C81.0247 63.401 81.2457 63.2157 81.4643 63.0446L92.5479 106.445Z" fill="#263238"/>
<path d="M78.9911 69.6734C80.3311 79.0036 83.7168 97.8707 88.9699 102.461C95.8695 108.498 111.836 109.589 116.568 109.931C118.628 110.08 120.417 96.4451 118.885 94.8628C117.352 93.2804 100.966 92.7387 99.5403 91.976C98.1148 91.2134 90.987 77.1005 87.4731 69.8801C83.0254 60.8493 78.4636 65.9955 78.9911 69.6734Z" fill="#F7A9A0"/>
<path d="M131.43 97.2292C134.01 97.2791 137.453 95.212 137.98 97.0581C138.451 98.7046 135.927 99.9092 135.927 99.9092C135.927 99.9092 139.206 99.4744 139.213 101.392C139.22 103.309 136.177 104.05 136.177 104.05C136.177 104.05 139.213 103.815 139.085 105.725C138.957 107.636 136.163 108.498 136.163 108.498C136.163 108.498 137.032 108.89 136.334 110.195C135.329 112.062 130.817 112.853 128.358 112.711C125.899 112.568 117.025 110.209 115.67 109.86L116.476 94.093C116.476 94.093 120.959 92.3396 123.347 91.7266C125.735 91.1136 134.145 91.2775 134.245 93.366C134.345 95.4544 128.4 95.2406 126.939 95.5043C125.478 95.768 125.286 96.1529 126.034 96.5521C127.81 96.9324 129.615 97.1589 131.43 97.2292Z" fill="#F7A9A0"/>
<path d="M135.785 99.902C132.149 101.328 130.311 101.328 126.519 100.615C126.447 100.615 126.405 100.707 126.519 100.729C130.147 101.777 132.449 102.112 135.877 100.094C136.027 99.9733 135.956 99.8664 135.785 99.902Z" fill="#263238"/>
<path d="M136.319 103.951C132.413 105.098 130.425 105.112 126.419 104.663C126.362 104.663 126.347 104.749 126.419 104.763C130.31 105.547 132.613 105.839 136.362 104.179C136.519 104.079 136.497 103.894 136.319 103.951Z" fill="#263238"/>
<path d="M136.112 108.47C132.256 109.311 130.068 109.418 126.241 108.47C126.222 108.464 126.201 108.466 126.184 108.475C126.167 108.485 126.154 108.501 126.148 108.519C126.142 108.538 126.144 108.559 126.154 108.576C126.163 108.594 126.179 108.606 126.198 108.612C129.38 109.911 132.945 109.911 136.127 108.612C136.355 108.505 136.355 108.42 136.112 108.47Z" fill="#263238"/>
<path d="M106.198 91.805C106.198 91.805 109.113 91.8762 109.12 92.6959C109.127 93.5156 107.416 94.1215 107.416 94.1215C107.416 94.1215 109.255 94.7558 109.12 95.9818C108.984 97.2078 106.789 97.3432 106.789 97.3432C106.789 97.3432 108.614 98.5763 108.407 99.4387C108.136 100.586 106.226 100.622 106.226 100.622C106.226 100.622 108.129 101.413 107.837 102.539C107.545 103.665 105.606 103.623 105.606 103.623C105.606 103.623 107.573 104.549 107.502 105.44C107.416 106.495 105.114 106.723 105.114 106.723C105.114 106.723 106.946 107.671 106.789 108.562C106.632 109.453 104.48 109.524 103.475 109.204L106.198 91.805Z" fill="white"/>
<path d="M107.417 91.6767L104.202 109.496C104.202 109.496 90.7449 106.053 87.8867 101.784C84.3228 96.4522 79.6827 79.6879 78.6705 70.7568C77.6584 61.8258 83.9593 61.5763 87.6301 68.8822C91.1939 75.9743 98.7636 90.0587 99.3552 90.6645C100.125 91.4771 107.417 91.6767 107.417 91.6767Z" fill="#FF3F59"/>
<path d="M98.4211 88.8541C98.0576 88.1414 97.3377 86.6374 96.9955 86.003C96.2828 84.6915 95.5343 83.38 94.7859 82.0757C94.0375 80.7713 93.3034 79.4598 92.5336 78.1697C92.3982 77.9558 92.277 77.7278 92.1416 77.5068C92.1416 77.35 91.5713 75.5395 91.4858 75.0834C91.4858 75.0121 91.3575 75.0335 91.3789 75.0834C91.4942 75.5307 91.5776 75.9856 91.6284 76.4448C91.6284 76.5303 91.6284 76.6158 91.6854 76.7014C91.1936 75.8532 90.7018 74.9978 90.2028 74.1782C90.1672 74.114 90.0674 74.1782 90.103 74.228C91.0938 76.01 91.6355 77.1504 92.3839 78.6045C93.1323 80.0585 93.8878 81.4057 94.6505 82.7956C95.4132 84.1855 96.2115 85.5682 96.9955 86.9439C97.451 87.7693 97.9482 88.571 98.4852 89.3459C98.8274 89.8306 98.8273 89.5598 98.4211 88.8541Z" fill="#263238"/>
<path d="M85.413 62.3818C85.5698 62.9947 88.5777 66.9577 91.4002 66.7867C92.3197 66.7225 92.2199 61.6904 92.2199 61.6904L92.2983 61.3197L93.3817 56.0951L87.202 52.2675L86.3111 51.7615C86.3111 51.7615 86.1115 53.187 85.8763 55.0188C85.8763 55.1044 85.8763 55.1899 85.8763 55.2754C85.8556 55.3718 85.8413 55.4694 85.8335 55.5677C85.7907 55.8385 85.7551 56.1165 85.7195 56.3873C85.6838 56.6582 85.6696 56.8008 85.6553 57.0217C85.6411 57.2427 85.6125 57.4565 85.584 57.6775C85.4176 59.2397 85.3605 60.8116 85.413 62.3818Z" fill="#F7A9A0"/>
<path d="M85.8765 55.0188C86.424 56.4719 87.2815 57.7883 88.3893 58.8765C89.4972 59.9646 90.8287 60.7983 92.2914 61.3197L93.3748 56.0951L87.1951 52.2675L86.3041 51.7615C86.3041 51.7615 86.1117 53.2155 85.8765 55.0188Z" fill="#263238"/>
<path d="M85.4128 50.8562C85.4128 50.8562 83.2745 48.0052 81.9987 48.7179C80.7228 49.4307 82.3123 53.7073 83.8804 54.2205C84.0764 54.3046 84.2874 54.3482 84.5007 54.3487C84.7141 54.3492 84.9253 54.3066 85.1217 54.2233C85.3181 54.1401 85.4956 54.018 85.6437 53.8644C85.7917 53.7108 85.9071 53.5289 85.9831 53.3296L85.4128 50.8562Z" fill="#F7A9A0"/>
<path d="M82.498 49.9225C82.498 49.9225 82.4624 49.9225 82.498 49.9653C83.0069 50.2025 83.4602 50.5439 83.8286 50.9676C84.197 51.3912 84.4722 51.8875 84.6364 52.4244C84.5697 52.3177 84.4811 52.2265 84.3763 52.1568C84.2716 52.0871 84.1532 52.0406 84.0291 52.0204C83.9049 52.0001 83.7779 52.0066 83.6564 52.0394C83.535 52.0722 83.422 52.1305 83.3249 52.2105C83.3249 52.2105 83.3249 52.2818 83.3249 52.2747C83.5147 52.209 83.7201 52.2039 83.913 52.2601C84.1058 52.3163 84.2763 52.431 84.4012 52.5883C84.6074 52.8549 84.7865 53.1414 84.9357 53.4436C84.9856 53.5434 85.1638 53.4864 85.1211 53.3723C85.1139 51.9611 83.9949 50.0294 82.498 49.9225Z" fill="#263238"/>
<path d="M100.338 47.663C101.336 56.9718 95.8693 58.6255 93.8593 58.8322C92.0417 59.0317 85.8121 59.4523 83.8805 50.2789C81.9489 41.1055 85.9404 37.7128 90.0816 37.0499C94.2228 36.387 99.3405 38.3542 100.338 47.663Z" fill="#F7A9A0"/>
<path d="M98.4711 46.4085C98.2556 46.3839 98.0415 46.3482 97.8296 46.3016C97.6005 46.294 97.3801 46.2113 97.2024 46.0664C97.1579 46.008 97.1338 45.9367 97.1338 45.8633C97.1338 45.7899 97.1579 45.7185 97.2024 45.6601C97.3038 45.5532 97.4321 45.4757 97.5738 45.4355C97.7155 45.3954 97.8655 45.3942 98.0078 45.4321C98.308 45.4671 98.5847 45.6118 98.7848 45.8383C98.8298 45.8923 98.8576 45.9586 98.8644 46.0286C98.8712 46.0986 98.8567 46.169 98.8228 46.2306C98.7889 46.2922 98.7372 46.3421 98.6745 46.3739C98.6117 46.4056 98.5408 46.4177 98.4711 46.4085Z" fill="#263238"/>
<path d="M91.9992 46.8718C92.2202 46.8362 92.4126 46.7649 92.6265 46.715C92.8563 46.6888 93.0714 46.5888 93.2395 46.4299C93.284 46.3716 93.3081 46.3002 93.3081 46.2268C93.3081 46.1534 93.284 46.082 93.2395 46.0237C93.1297 45.926 92.9959 45.8593 92.8519 45.8305C92.7078 45.8017 92.5586 45.8117 92.4198 45.8597C92.1358 45.9229 91.8833 46.0845 91.707 46.3159C91.6709 46.3693 91.65 46.4315 91.6464 46.4958C91.6429 46.5601 91.6568 46.6243 91.6868 46.6813C91.7168 46.7383 91.7617 46.7862 91.8167 46.8197C91.8717 46.8533 91.9348 46.8713 91.9992 46.8718Z" fill="#263238"/>
<path d="M93.3319 49.1812C93.3319 49.1812 93.282 49.2168 93.2891 49.2454C93.3461 49.8797 93.2891 50.6139 92.7403 50.8634V50.899C93.4459 50.7565 93.4887 49.7728 93.3319 49.1812Z" fill="#263238"/>
<path d="M92.7264 48.5469C91.7 48.5469 91.7427 50.5854 92.6907 50.5997C93.6387 50.6139 93.5888 48.5469 92.7264 48.5469Z" fill="#263238"/>
<path d="M92.3197 48.668C92.1487 48.7892 91.9776 49.003 91.7567 49.0244C91.5357 49.0458 91.3147 48.8462 91.1437 48.6395H91.108C91.108 49.0316 91.272 49.4307 91.6996 49.4806C92.1273 49.5305 92.3554 49.1741 92.4124 48.7678C92.4623 48.7322 92.4124 48.6253 92.3197 48.668Z" fill="#263238"/>
<path d="M97.3166 48.8106C97.3166 48.8106 97.3736 48.8106 97.3665 48.8676C97.3665 49.502 97.452 50.2361 98.0293 50.4357C98.0293 50.4357 98.0293 50.4785 98.0293 50.4357C97.3237 50.3858 97.2096 49.4093 97.3166 48.8106Z" fill="#263238"/>
<path d="M97.8794 48.1335C98.9058 48.048 99.0127 50.1007 98.0647 50.1863C97.1167 50.2718 97.024 48.2119 97.8794 48.1335Z" fill="#263238"/>
<path d="M98.3141 48.2475C98.4852 48.3473 98.6563 48.5397 98.8487 48.5397C99.0412 48.5397 99.2265 48.3116 99.3619 48.0907C99.3619 48.0907 99.3619 48.0907 99.3976 48.0907C99.3976 48.4827 99.3192 48.9032 98.9414 48.9959C98.5636 49.0886 98.3355 48.7607 98.2286 48.3687C98.2001 48.3188 98.25 48.2047 98.3141 48.2475Z" fill="#263238"/>
<path d="M93.7528 54.0637C93.9025 54.2205 94.0451 54.4272 94.2803 54.4557C94.5252 54.4585 94.768 54.41 94.993 54.3132C94.993 54.3132 95.0358 54.3132 94.993 54.3132C94.8986 54.4366 94.7726 54.5322 94.6283 54.59C94.4841 54.6477 94.3269 54.6653 94.1734 54.6411C94.0467 54.5998 93.9341 54.5238 93.8485 54.4217C93.7628 54.3196 93.7074 54.1956 93.6887 54.0637C93.6816 54.0566 93.7315 54.0423 93.7528 54.0637Z" fill="#263238"/>
<path d="M96.3398 51.676C96.3398 51.676 96.5037 52.6239 96.518 53.1015C96.518 53.1443 96.4111 53.1656 96.2543 53.1799C95.8668 53.272 95.4614 53.2541 95.0836 53.1281C94.7058 53.0022 94.3707 52.7733 94.116 52.4671C94.116 52.4244 94.116 52.3745 94.1872 52.403C94.7701 52.7748 95.458 52.9474 96.1474 52.8948C96.1474 52.7736 95.8195 51.2839 95.8908 51.2768C96.2404 51.2961 96.5858 51.3632 96.9172 51.4764C96.632 49.4877 96.0333 47.5704 95.7838 45.5889C95.7882 45.5763 95.7964 45.5654 95.8073 45.5577C95.8181 45.55 95.8311 45.5458 95.8444 45.5458C95.8578 45.5458 95.8707 45.55 95.8816 45.5577C95.8925 45.5654 95.9006 45.5763 95.905 45.5889C96.6051 47.628 97.1017 49.7314 97.3876 51.8684C97.4517 52.0537 96.518 51.7472 96.3398 51.676Z" fill="#263238"/>
<path d="M84.4297 50.899C85.9693 50.899 86.0762 47.6559 86.0762 47.6559C86.0762 47.6559 89.1838 47.4278 89.8681 42.8732C89.8826 44.221 89.5036 45.5438 88.7776 46.6794C88.7776 46.6794 94.216 45.6744 96.1761 40.906C96.1761 40.906 95.4634 43.3151 94.6294 44.2132C95.9899 43.6803 97.1302 42.7032 97.8654 41.4405C97.8654 41.4405 99.0272 44.0136 99.8255 44.6908C99.8255 44.6908 98.8562 35.104 90.0392 36.8146C90.0392 36.8146 84.5009 37.6129 82.8402 42.1747C81.1794 46.7364 84.4297 50.899 84.4297 50.899Z" fill="#263238"/>
<path d="M85.9976 61.0631C84.8572 61.17 82.9612 61.5834 80.5805 63.8215C80.5805 63.8215 86.4181 67.6064 91.4432 67.1003C93.2394 66.9221 93.5815 63.9 93.5815 63.9C92.6009 62.9025 91.4139 62.1316 90.1037 61.6416C88.7936 61.1515 87.3921 60.9541 85.9976 61.0631Z" fill="#F7A9A0"/>
<path d="M201.317 244.987C202.671 245.443 241.439 245.578 242.922 244.652C243.485 244.302 243.834 238.657 244.062 231.822C244.112 230.346 244.155 228.821 244.183 227.274L247.327 206.604L221.424 206.433L218.98 227.103L219.079 231.658C219.079 231.658 204.211 238.244 202.686 239.434C201.16 240.625 199.963 244.559 201.317 244.987Z" fill="#DD6A57"/>
<path d="M201.317 244.987C202.671 245.443 241.439 245.578 242.921 244.652C243.634 244.224 243.976 235.977 244.183 227.274L218.965 227.11L219.065 231.665C219.065 231.665 204.196 238.251 202.671 239.441C201.146 240.632 199.962 244.559 201.317 244.987Z" fill="white"/>
<path d="M201.317 244.987C202.671 245.443 241.439 245.578 242.921 244.652C243.484 244.302 243.833 238.657 244.062 231.822L219.065 231.665C219.065 231.665 204.196 238.251 202.671 239.441C201.146 240.632 199.962 244.559 201.317 244.987Z" fill="#FF3F59"/>
<path d="M201.88 243.433C208.373 243.297 234.603 243.362 241.039 243.718C241.089 243.718 241.089 243.761 241.039 243.761C234.624 244.039 208.373 243.761 201.88 243.54C201.737 243.54 201.737 243.44 201.88 243.433Z" fill="#263238"/>
<path d="M205.18 238.059C205.902 238.042 206.621 238.176 207.289 238.451C207.958 238.725 208.562 239.135 209.064 239.655C209.969 240.589 210.479 241.834 210.49 243.133C210.49 243.169 210.419 243.169 210.412 243.133C210.194 241.847 209.565 240.665 208.619 239.765C207.674 238.866 206.462 238.297 205.166 238.144C205.154 238.142 205.144 238.136 205.137 238.127C205.131 238.117 205.128 238.106 205.13 238.094C205.132 238.083 205.138 238.073 205.147 238.066C205.157 238.059 205.168 238.057 205.18 238.059Z" fill="#263238"/>
<path d="M216.542 232.299C219.143 232.299 222.158 233.205 223.762 235.336C223.826 235.414 223.705 235.507 223.634 235.464C221.365 234.264 218.976 233.308 216.506 232.613C216.473 232.599 216.445 232.576 216.427 232.545C216.409 232.514 216.401 232.478 216.405 232.443C216.409 232.407 216.425 232.374 216.449 232.348C216.474 232.322 216.506 232.305 216.542 232.299Z" fill="#263238"/>
<path d="M214.532 233.076C217.133 233.076 220.148 233.974 221.752 236.113C221.816 236.191 221.695 236.284 221.624 236.241C219.356 235.04 216.966 234.085 214.496 233.39C214.463 233.376 214.435 233.352 214.417 233.322C214.399 233.291 214.391 233.255 214.395 233.22C214.399 233.184 214.415 233.151 214.439 233.125C214.464 233.099 214.496 233.082 214.532 233.076Z" fill="#263238"/>
<path d="M212.521 233.867C215.123 233.867 218.131 234.766 219.742 236.904C219.806 236.982 219.685 237.068 219.606 237.032C217.339 235.83 214.95 234.874 212.479 234.181C212.445 234.167 212.418 234.142 212.4 234.111C212.382 234.08 212.375 234.044 212.38 234.008C212.385 233.972 212.401 233.939 212.427 233.914C212.453 233.888 212.486 233.872 212.521 233.867Z" fill="#263238"/>
<path d="M210.511 234.63C213.113 234.63 216.121 235.528 217.732 237.659C217.796 237.745 217.675 237.83 217.596 237.795C215.331 236.589 212.941 235.634 210.469 234.944C210.436 234.93 210.408 234.905 210.39 234.874C210.372 234.843 210.365 234.806 210.37 234.771C210.375 234.735 210.391 234.702 210.417 234.676C210.443 234.651 210.476 234.635 210.511 234.63Z" fill="#263238"/>
<path d="M239.407 237.545C242.322 237.545 242.301 242.093 239.372 242.079C236.442 242.064 236.478 237.524 239.407 237.545Z" fill="#263238"/>
<path d="M213.947 229.163C215.373 230.981 217.511 232.128 219.328 233.44C219.372 233.464 219.42 233.478 219.47 233.481C219.52 233.484 219.57 233.474 219.615 233.454C219.661 233.434 219.701 233.404 219.733 233.365C219.765 233.327 219.788 233.282 219.799 233.233C219.809 233.236 219.82 233.235 219.83 233.233C219.84 233.23 219.849 233.225 219.857 233.218C219.865 233.211 219.871 233.202 219.874 233.193C219.878 233.183 219.879 233.172 219.877 233.162C219.694 230.774 218.888 228.476 217.539 226.497C216.734 225.364 215.073 224.288 213.755 225.378C212.436 226.469 213.134 228.101 213.947 229.163ZM213.833 227.025C214.104 224.174 216.648 226.376 217.212 227.239C217.566 227.801 217.883 228.387 218.16 228.992C218.744 230.247 219.15 231.558 219.585 232.855C218.715 232.143 217.796 231.558 216.905 230.902C215.864 230.111 213.69 228.564 213.833 227.011V227.025Z" fill="#263238"/>
<path d="M229.122 231.508C228.922 229.805 226.984 229.434 225.615 229.691C223.262 230.174 221.078 231.27 219.286 232.87C219.277 232.875 219.27 232.883 219.265 232.893C219.26 232.902 219.257 232.912 219.257 232.923C219.257 232.934 219.26 232.944 219.265 232.953C219.27 232.963 219.277 232.971 219.286 232.976C219.26 233.019 219.244 233.067 219.24 233.117C219.236 233.167 219.243 233.217 219.262 233.264C219.281 233.31 219.31 233.351 219.347 233.384C219.385 233.417 219.43 233.441 219.478 233.454C221.702 233.803 224.033 234.459 226.299 234.117C227.661 233.917 229.307 233.112 229.122 231.508ZM222.992 233.297C221.894 233.148 220.811 232.948 219.706 232.841C220.939 232.228 222.137 231.565 223.434 231.073C224.05 230.823 224.684 230.618 225.33 230.46C226.335 230.225 229.678 230.418 227.91 232.641C226.941 233.867 224.275 233.475 222.992 233.297Z" fill="#263238"/>
<path d="M285.41 111.014C285.41 111.014 255.317 162.22 254.511 165.812C253.271 171.336 246.706 225.884 246.706 225.884L215.387 225.314C215.387 225.314 220.79 177.216 225.901 161.372C229.586 149.967 256.143 112.105 256.143 112.105L285.41 111.014Z" fill="#FF3F59"/>
<path d="M218.238 220.524C222.735 220.524 238.673 220.311 244.66 220.867C244.672 220.867 244.682 220.871 244.69 220.879C244.698 220.887 244.703 220.898 244.703 220.909C244.703 220.921 244.698 220.931 244.69 220.94C244.682 220.948 244.672 220.952 244.66 220.952C242.593 221.251 222.728 220.788 218.238 220.646C218.228 220.649 218.218 220.65 218.208 220.648C218.198 220.647 218.188 220.643 218.18 220.637C218.171 220.631 218.164 220.623 218.16 220.614C218.155 220.605 218.153 220.595 218.153 220.585C218.153 220.575 218.155 220.565 218.16 220.556C218.164 220.546 218.171 220.539 218.18 220.533C218.188 220.527 218.198 220.523 218.208 220.521C218.218 220.52 218.228 220.521 218.238 220.524Z" fill="#263238"/>
<path d="M280.277 115.711C278.303 118.805 276.222 121.834 274.204 124.906C272.187 127.978 270.177 131.043 268.196 134.129C264.223 140.307 260.351 146.539 256.578 152.825C254.741 155.718 253.171 158.772 251.888 161.949C250.699 165.136 249.806 168.427 249.222 171.778C248.609 175.135 248.203 178.528 247.796 181.921C247.392 185.537 246.988 189.151 246.585 192.762L244.111 214.936C244.004 215.841 243.905 216.747 243.819 217.659C243.819 217.787 244.04 217.816 244.061 217.659C244.981 210.317 245.743 202.947 246.585 195.563C246.998 191.899 247.414 188.238 247.832 184.579C248.217 181.172 248.587 177.765 249.115 174.38C249.605 171.041 250.343 167.743 251.324 164.515C252.406 161.171 253.857 157.957 255.651 154.935C259.279 148.677 263.121 142.526 266.963 136.403C270.805 130.28 274.746 124.044 278.795 117.964C279.301 117.208 279.8 116.46 280.32 115.726C280.413 115.711 280.313 115.654 280.277 115.711Z" fill="#263238"/>
<path d="M258.802 249.292C260.227 249.385 298.717 239.242 299.893 237.966C299.944 237.889 299.976 237.801 299.986 237.709C300.135 236.448 298.168 231.722 296.785 225.678C296.7 225.293 295.98 223.454 294.961 220.981C292.174 214.167 287.191 202.484 287.191 202.484L262.052 208.921L271.318 227.51L272.572 231.886C272.572 231.886 259.914 242.043 258.716 243.583C257.519 245.122 257.383 249.192 258.802 249.292Z" fill="#DD6A57"/>
<path d="M258.802 249.292C260.227 249.385 298.717 239.242 299.893 237.966C299.944 237.889 299.976 237.801 299.986 237.709C300.135 236.448 298.168 231.722 296.785 225.678C296.7 225.293 295.98 223.454 294.961 220.981L271.318 227.51L272.572 231.886C272.572 231.886 259.914 242.043 258.716 243.583C257.519 245.122 257.383 249.192 258.802 249.292Z" fill="white"/>
<path d="M258.809 249.285C260.234 249.384 298.724 239.242 299.893 237.966C300.349 237.488 299.351 232.264 296.792 225.678L272.558 231.886C272.558 231.886 259.914 242.043 258.716 243.583C257.519 245.122 257.383 249.192 258.809 249.285Z" fill="#FF3F59"/>
<path d="M258.959 247.645C265.203 245.863 290.585 239.242 296.9 237.952C296.95 237.952 296.957 237.952 296.9 237.994C290.748 239.898 265.317 246.313 258.973 247.752C258.845 247.781 258.823 247.688 258.959 247.645Z" fill="#263238"/>
<path d="M260.783 241.601C261.478 241.403 262.207 241.351 262.923 241.448C263.639 241.545 264.328 241.789 264.946 242.164C266.061 242.832 266.875 243.904 267.219 245.158C267.219 245.193 267.162 245.215 267.141 245.158C266.606 243.967 265.699 242.982 264.556 242.351C263.414 241.72 262.097 241.477 260.804 241.658C260.747 241.708 260.733 241.622 260.783 241.601Z" fill="#263238"/>
<path d="M270.299 233.155C272.808 232.442 275.958 232.592 278.061 234.245C278.139 234.309 278.061 234.423 277.961 234.409C275.462 233.824 272.907 233.511 270.341 233.475C270.303 233.474 270.265 233.459 270.236 233.433C270.208 233.407 270.189 233.372 270.184 233.333C270.179 233.295 270.187 233.256 270.208 233.223C270.229 233.19 270.261 233.166 270.299 233.155Z" fill="#263238"/>
<path d="M268.552 234.409C271.061 233.696 274.212 233.853 276.314 235.5C276.393 235.564 276.314 235.685 276.215 235.664C273.716 235.079 271.161 234.766 268.595 234.73C268.556 234.729 268.519 234.714 268.49 234.688C268.461 234.662 268.443 234.626 268.437 234.588C268.432 234.549 268.441 234.51 268.462 234.477C268.483 234.445 268.515 234.42 268.552 234.409Z" fill="#263238"/>
<path d="M266.806 235.671C269.315 234.958 272.466 235.115 274.568 236.768C274.647 236.826 274.568 236.947 274.469 236.925C271.967 236.34 269.41 236.027 266.842 235.992C266.803 235.989 266.767 235.973 266.739 235.946C266.712 235.92 266.694 235.884 266.69 235.846C266.686 235.808 266.695 235.769 266.716 235.737C266.737 235.705 266.769 235.682 266.806 235.671Z" fill="#263238"/>
<path d="M265.06 236.932C267.569 236.22 270.72 236.376 272.815 238.03C272.901 238.094 272.815 238.208 272.722 238.187C270.221 237.602 267.664 237.289 265.096 237.253C265.057 237.251 265.021 237.235 264.993 237.208C264.966 237.181 264.948 237.146 264.944 237.108C264.94 237.069 264.949 237.031 264.97 236.999C264.991 236.967 265.023 236.943 265.06 236.932Z" fill="#263238"/>
<path d="M293.749 232.392C296.6 231.679 297.705 236.063 294.875 236.79C292.045 237.517 290.912 233.155 293.749 232.392Z" fill="#263238"/>
<path d="M266.999 230.774C268.809 232.2 271.168 232.734 273.278 233.511C273.326 233.523 273.376 233.524 273.425 233.514C273.473 233.503 273.519 233.481 273.557 233.45C273.596 233.419 273.627 233.379 273.648 233.334C273.669 233.289 273.679 233.24 273.677 233.19C273.688 233.19 273.699 233.187 273.708 233.181C273.718 233.176 273.726 233.169 273.732 233.16C273.738 233.151 273.742 233.141 273.744 233.13C273.745 233.119 273.745 233.108 273.741 233.098C272.956 230.837 271.592 228.822 269.785 227.253C268.709 226.362 266.835 225.742 265.837 227.132C264.839 228.522 265.937 229.954 266.999 230.774ZM266.336 228.714C265.879 225.913 268.895 227.374 269.657 228.066C270.144 228.521 270.598 229.009 271.019 229.527C271.87 230.605 272.667 231.725 273.406 232.884C272.387 232.442 271.346 232.086 270.313 231.679C269.087 231.195 266.592 230.261 266.329 228.714H266.336Z" fill="#263238"/>
<path d="M282.266 229.17C281.639 227.581 279.672 227.709 278.417 228.308C276.274 229.377 274.45 230.992 273.129 232.991C273.121 232.997 273.115 233.004 273.111 233.013C273.107 233.022 273.105 233.031 273.105 233.041C273.105 233.05 273.107 233.06 273.111 233.068C273.115 233.077 273.121 233.085 273.129 233.091C273.114 233.138 273.111 233.189 273.12 233.238C273.128 233.287 273.148 233.334 273.178 233.374C273.208 233.414 273.247 233.447 273.291 233.47C273.336 233.492 273.385 233.504 273.435 233.504C275.673 233.276 278.097 233.312 280.199 232.406C281.468 231.879 282.858 230.681 282.266 229.17ZM276.8 232.442C275.695 232.584 274.597 232.663 273.507 232.841C274.54 231.936 275.531 230.988 276.65 230.182C277.186 229.787 277.748 229.427 278.332 229.106C279.244 228.629 282.53 227.959 281.39 230.532C280.755 232.014 278.104 232.306 276.8 232.442Z" fill="#263238"/>
<path d="M269.607 226.319L297.74 218.935C297.74 218.935 270.805 165.919 271.026 162.255C271.218 159.012 290.755 130.558 291.839 125.234C293.606 116.517 289.358 108.733 285.245 103.908L256.143 112.112C257.706 115.297 259.949 118.1 262.715 120.323C262.715 120.323 244.425 150.865 243.962 160.908C243.498 170.951 269.607 226.319 269.607 226.319Z" fill="#FF3F59"/>
<path d="M269.066 221.073C273.15 219.904 271.959 220.182 276.058 219.063C278.061 218.514 291.233 214.915 293.164 214.729C293.207 214.729 293.221 214.794 293.164 214.808C291.368 215.62 278.139 218.985 276.122 219.498C272.009 220.546 273.178 220.211 269.051 221.194C269.023 221.216 268.994 221.102 269.066 221.073Z" fill="#263238"/>
<path d="M258.246 119.154C261.044 120.186 263.748 121.457 266.329 122.953C266.346 122.966 266.358 122.984 266.363 123.005C266.368 123.026 266.366 123.048 266.357 123.067C266.347 123.087 266.332 123.102 266.312 123.111C266.293 123.12 266.271 123.122 266.25 123.117C263.535 121.927 260.762 120.793 258.117 119.468C258.082 119.447 258.055 119.414 258.042 119.375C258.028 119.336 258.03 119.293 258.045 119.255C258.061 119.217 258.09 119.186 258.127 119.167C258.163 119.148 258.206 119.144 258.246 119.154Z" fill="#263238"/>
<path d="M261.667 118.434C261.874 118.945 262.048 119.469 262.187 120.002C262.337 120.416 262.407 120.853 262.394 121.292C262.394 121.371 262.266 121.378 262.223 121.292C261.978 120.905 261.795 120.482 261.681 120.038C261.503 119.553 261.311 119.069 261.154 118.612C261.13 118.544 261.134 118.47 261.166 118.405C261.197 118.34 261.253 118.29 261.321 118.267C261.389 118.243 261.464 118.247 261.529 118.279C261.594 118.31 261.643 118.366 261.667 118.434Z" fill="#263238"/>
<path d="M261.667 115.797C261.553 115.355 261.432 114.906 261.31 114.464C261.189 114.022 261.018 113.544 260.926 113.081C260.926 113.003 260.797 113.038 260.812 113.081C260.926 113.53 260.983 114.001 261.061 114.457C261.139 114.913 261.225 115.362 261.318 115.818C261.489 116.67 261.703 117.512 261.959 118.341C261.502 118.307 261.059 118.171 260.662 117.942C260.276 117.621 259.999 117.188 259.871 116.702C259.692 116.196 259.529 115.683 259.336 115.177C259.103 114.627 258.914 114.06 258.773 113.48C258.773 113.402 258.645 113.438 258.659 113.48C258.886 114.7 259.235 115.894 259.7 117.044C259.899 117.5 260.049 117.964 260.498 118.192C260.992 118.4 261.523 118.505 262.059 118.498C262.116 118.498 262.209 118.498 262.194 118.413C262.062 117.532 261.886 116.659 261.667 115.797Z" fill="#263238"/>
<path d="M262.152 121.321C261.047 123.324 259.778 125.241 258.588 127.194C257.398 129.147 256.335 131.043 255.252 133.003C253.076 136.952 251.066 140.991 249.222 145.12C248.31 147.159 247.45 149.219 246.642 151.3C245.774 153.384 245.059 155.528 244.503 157.715C243.985 159.886 243.888 162.136 244.218 164.344C244.623 166.591 245.197 168.805 245.936 170.965C247.445 175.947 249.281 180.823 251.432 185.563C251.503 185.72 251.767 185.599 251.71 185.442C250.17 181.101 248.573 176.782 247.198 172.391C245.858 168.114 244.268 163.717 245.01 159.198C245.417 157.026 246.035 154.899 246.856 152.847C247.64 150.708 248.488 148.649 249.379 146.589C251.146 142.519 253.135 138.57 255.159 134.628C256.293 132.419 257.49 130.245 258.638 128.042C259.785 125.84 260.919 123.559 262.202 121.421C262.287 121.314 262.187 121.25 262.152 121.321Z" fill="#263238"/>
<path d="M283.342 117.051C282.886 116.816 282.188 117.051 281.689 117.051C281.047 117.075 280.404 117.056 279.764 116.994C279.134 116.933 278.508 116.833 277.89 116.695C277.263 116.594 276.668 116.35 276.15 115.982C275.325 115.201 274.653 114.273 274.169 113.245C273.561 112.186 273.094 111.053 272.779 109.874C272.779 109.802 272.665 109.874 272.672 109.909C272.793 110.572 272.857 111.242 273.036 111.898C273.208 112.519 273.432 113.125 273.706 113.708C274.119 114.866 274.817 115.901 275.737 116.716C276.77 117.493 278.203 117.636 279.451 117.728C280.162 117.781 280.877 117.781 281.589 117.728C282.109 117.686 282.972 117.728 283.356 117.308C283.376 117.292 283.392 117.272 283.403 117.249C283.413 117.226 283.418 117.201 283.416 117.176C283.415 117.151 283.407 117.126 283.394 117.105C283.382 117.083 283.364 117.065 283.342 117.051Z" fill="#263238"/>
<path d="M290.755 212.855C287.215 205.642 283.756 198.383 280.377 191.08C276.999 183.776 273.694 176.418 270.462 169.005C269.576 167.267 268.872 165.442 268.36 163.56C267.918 161.493 268.559 159.632 269.429 157.779C271.059 154.395 272.88 151.107 274.882 147.929C276.863 144.721 278.952 141.592 281.012 138.442C283.152 135.363 285.116 132.164 286.892 128.862C288.578 125.748 289.286 122.199 288.923 118.676C288.467 115.113 286.927 111.784 285.281 108.648L283.955 106.167C283.955 106.103 283.827 106.167 283.863 106.224C285.702 109.517 287.469 112.974 288.325 116.666C288.769 118.491 288.906 120.377 288.731 122.247C288.503 124.139 287.968 125.98 287.148 127.7C285.623 131.064 283.492 134.158 281.446 137.244C279.401 140.33 277.291 143.524 275.288 146.71C273.247 149.904 271.377 153.204 269.686 156.596C268.834 158.083 268.245 159.706 267.946 161.393C267.747 163.253 268.424 165.042 269.144 166.724C272.273 174.059 275.559 181.329 278.909 188.571C282.259 195.813 285.723 203.054 289.244 210.246L290.584 212.962C290.648 213.076 290.812 212.969 290.755 212.855Z" fill="#263238"/>
<path d="M260.762 78.968C258.196 82.6174 243.962 94.5705 231.282 95.2691C226.97 95.5114 206.898 82.8312 203.085 80.4291C198.623 77.6208 207.504 65.8886 210.569 66.4018C214.389 67.0433 230.099 80.4577 232.786 80.5289C237.105 80.643 248.681 76.3806 257.619 74.4918C262.223 73.4939 262.765 76.1596 260.762 78.968Z" fill="#DD6A57"/>
<path d="M260.783 80.2652C257.633 84.9909 247.084 92.7387 247.084 92.7387L245.658 89.517L240.733 78.8254C240.733 78.8254 250.419 75.6963 256.799 74.2922C257.551 74.1159 258.316 74.0015 259.087 73.9501C263.128 73.6863 263.477 76.2024 260.783 80.2652Z" fill="#EBEBEB"/>
<path d="M248.759 76.9936C248.885 77.4387 248.945 77.8997 248.937 78.3621C248.948 78.8247 248.888 79.2863 248.759 79.7306C248.521 78.8337 248.521 77.8905 248.759 76.9936Z" fill="white"/>
<path d="M247.454 82.5247C246.56 82.7623 245.619 82.7623 244.724 82.5247C245.619 82.2871 246.56 82.2871 247.454 82.5247Z" fill="white"/>
<path d="M261.282 74.8767C260.837 75.0023 260.376 75.0624 259.914 75.0549C259.451 75.0659 258.989 75.0058 258.545 74.8767C259.442 74.6392 260.385 74.6392 261.282 74.8767Z" fill="white"/>
<path d="M253.741 80.4291C254.141 80.659 254.507 80.9419 254.831 81.2702C255.164 81.5904 255.447 81.9578 255.672 82.3608C254.873 81.894 254.207 81.2286 253.741 80.4291Z" fill="white"/>
<path d="M248.509 86.9439C248.909 87.1737 249.276 87.4567 249.6 87.785C249.932 88.1051 250.216 88.4726 250.441 88.8755C250.04 88.6505 249.672 88.3697 249.35 88.0416C249.02 87.717 248.737 87.3475 248.509 86.9439Z" fill="white"/>
<path d="M260.783 80.2652C257.633 84.9909 247.084 92.7387 247.084 92.7387L245.658 89.517C249.572 84.9125 255.637 77.9416 259.087 73.9287C263.128 73.6863 263.478 76.2024 260.783 80.2652Z" fill="#C7C7C7"/>
<path d="M249.001 90.6004C248.188 88.6332 244.546 80.6857 243.641 79.025C243.577 78.9038 243.491 78.9181 243.541 79.025C245.126 82.9771 246.923 86.8411 248.922 90.6004C248.951 90.6432 249.022 90.6004 249.001 90.6004Z" fill="#263238"/>
<path d="M252.102 89.6452C252.102 89.6071 252.102 89.5689 252.102 89.5307C252.102 89.5308 252.102 89.531 252.102 89.5312V89.6452Z" fill="#263238"/>
<path d="M254.596 113.594C256.022 114.599 257.825 116.096 266.977 115.583C267.547 115.547 268.125 115.49 268.709 115.405C277.412 114.058 288.802 105.626 289.458 105.013C289.458 105.013 279.194 81.6551 263.164 72.5316C261.182 71.4055 257.462 72.5316 255.28 74.2708C254.496 74.8909 252.265 79.973 252.244 84.3138C252.223 88.6545 253.164 112.597 254.596 113.594Z" fill="#EBEBEB"/>
<path d="M259.793 84.9339C259.918 85.3789 259.978 85.84 259.971 86.3024C259.979 86.7625 259.919 87.2212 259.793 87.6638C259.67 87.2205 259.61 86.7623 259.614 86.3024C259.61 85.8402 259.67 85.3796 259.793 84.9339Z" fill="white"/>
<path d="M263.477 100.615C263.715 101.512 263.715 102.455 263.477 103.352C263.24 102.455 263.24 101.512 263.477 100.615Z" fill="white"/>
<path d="M274.882 90.914C275.119 91.8109 275.119 92.7542 274.882 93.6511C274.644 92.7542 274.644 91.8109 274.882 90.914Z" fill="white"/>
<path d="M254.033 98.5407C254.159 98.9858 254.219 99.4468 254.211 99.9092C254.219 100.369 254.159 100.828 254.033 101.271C253.911 100.827 253.851 100.369 253.855 99.9092C253.851 99.447 253.911 98.9864 254.033 98.5407Z" fill="white"/>
<path d="M268.367 88.07C267.922 88.1957 267.461 88.2557 266.999 88.2482C266.539 88.2557 266.08 88.1957 265.637 88.07C266.081 87.9482 266.539 87.8882 266.999 87.8918C267.461 87.8876 267.922 87.9475 268.367 88.07Z" fill="white"/>
<path d="M278.054 100.209C277.159 100.446 276.218 100.446 275.324 100.209C276.218 99.971 277.159 99.971 278.054 100.209Z" fill="white"/>
<path d="M263.328 109.845C262.433 110.083 261.492 110.083 260.598 109.845C261.492 109.608 262.433 109.608 263.328 109.845Z" fill="white"/>
<path d="M280.477 107.985C280.034 108.107 279.576 108.167 279.116 108.163C278.653 108.167 278.193 108.107 277.747 107.985C278.192 107.859 278.653 107.799 279.116 107.807C279.576 107.799 280.034 107.859 280.477 107.985Z" fill="white"/>
<path d="M261.282 74.8767C260.837 75.0023 260.376 75.0624 259.914 75.0549C259.451 75.0659 258.989 75.0058 258.545 74.8767C259.442 74.6392 260.385 74.6392 261.282 74.8767Z" fill="white"/>
<path d="M266.037 76.6515C266.836 77.1182 267.501 77.7836 267.968 78.5831C267.564 78.3598 267.196 78.0762 266.878 77.742C266.545 77.4219 266.262 77.0544 266.037 76.6515Z" fill="white"/>
<path d="M280.263 91.8763C281.063 92.343 281.728 93.0084 282.195 93.8079C281.391 93.3464 280.725 92.6798 280.263 91.8763Z" fill="white"/>
<path d="M257.511 93.5085C258.311 93.9753 258.976 94.6406 259.443 95.4401C259.039 95.2168 258.671 94.9332 258.352 94.599C258.02 94.2789 257.737 93.9114 257.511 93.5085Z" fill="white"/>
<path d="M270.562 104.507C270.963 104.735 271.33 105.018 271.653 105.348C271.985 105.668 272.269 106.035 272.494 106.438C272.093 106.213 271.726 105.932 271.403 105.604C271.075 105.278 270.792 104.909 270.562 104.507Z" fill="white"/>
<path d="M253.741 80.4291C254.141 80.659 254.507 80.9419 254.831 81.2702C255.164 81.5904 255.447 81.9578 255.672 82.3608C254.873 81.894 254.207 81.2286 253.741 80.4291Z" fill="white"/>
<path d="M252.586 90.914C252.814 90.5126 253.097 90.1455 253.427 89.8235C253.751 89.4952 254.118 89.2123 254.518 88.9824C254.293 89.3875 254.009 89.7574 253.677 90.0801C253.354 90.4082 252.987 90.689 252.586 90.914Z" fill="white"/>
<path d="M283.478 102.546C283.705 102.145 283.988 101.777 284.319 101.456C284.643 101.128 285.01 100.845 285.41 100.615C285.186 101.021 284.903 101.391 284.569 101.713C284.246 102.041 283.879 102.321 283.478 102.546Z" fill="white"/>
<path d="M254.268 107.208C254.735 106.408 255.4 105.743 256.2 105.276C255.975 105.682 255.691 106.051 255.359 106.374C255.036 106.702 254.669 106.983 254.268 107.208Z" fill="white"/>
<path d="M271.71 84.7699C271.935 84.3688 272.216 84.0016 272.544 83.6794C272.867 83.3467 273.237 83.0633 273.642 82.8383C273.175 83.6378 272.51 84.3032 271.71 84.7699Z" fill="white"/>
<path d="M267.383 114.001C267.609 113.598 267.892 113.23 268.224 112.91C268.548 112.582 268.915 112.299 269.315 112.069C269.092 112.473 268.808 112.841 268.474 113.16C268.154 113.492 267.786 113.775 267.383 114.001Z" fill="white"/>
<path d="M267.398 96.4024C267.865 95.6029 268.53 94.9375 269.329 94.4707C268.873 95.2784 268.205 95.9463 267.398 96.4024Z" fill="white"/>
<path d="M257.604 80.4292C259.821 80.3294 262.487 76.1525 263.157 73.1589C262.688 71.7324 262.145 70.3311 261.531 68.9607C261.011 67.6135 260.462 66.1096 260.056 64.684C259.978 64.3918 259.137 65.2115 259.137 65.2115L257.433 66.1737L251.802 69.367C252.812 70.9894 253.619 72.7297 254.204 74.5488C254.259 74.7444 254.295 74.9449 254.311 75.1475C254.311 75.1475 254.311 75.2117 254.311 75.2473C254.461 76.4091 255.459 80.5218 257.604 80.4292Z" fill="#DD6A57"/>
<path d="M254.311 75.1546C254.311 75.1546 254.311 75.2187 254.311 75.2544C254.626 75.2132 254.936 75.1416 255.238 75.0405C261.168 73.2087 259.749 65.4039 259.749 65.4039L257.419 66.1808L251.788 69.374C252.798 70.9965 253.604 72.7368 254.19 74.5559C254.25 74.751 254.29 74.9515 254.311 75.1546Z" fill="#263238"/>
<path d="M260.627 55.9027C261.739 59.1387 260.334 68.6399 258.082 70.821C254.818 73.9857 249.315 74.4704 246.585 70.5074C243.934 66.6655 245.979 54.3203 248.51 52.3246C252.209 49.3737 258.959 51.1271 260.627 55.9027Z" fill="#DD6A57"/>
<path d="M251.817 62.3461C251.817 62.3461 251.859 62.3889 251.852 62.4103C251.745 63.0518 251.724 63.8358 252.273 64.0924C252.273 64.0924 252.273 64.1352 252.273 64.128C251.567 63.9285 251.603 62.9377 251.817 62.3461Z" fill="#263238"/>
<path d="M252.479 61.7616C253.52 61.8329 253.306 63.9 252.344 63.843C251.382 63.7859 251.61 61.7046 252.479 61.7616Z" fill="#263238"/>
<path d="M247.875 61.8543C247.875 61.8543 247.825 61.8543 247.818 61.9113C247.775 62.5528 247.611 63.287 247.012 63.4367V63.4723C247.732 63.4509 247.939 62.4744 247.875 61.8543Z" fill="#263238"/>
<path d="M247.369 61.1273C246.342 60.9419 246.05 63.009 246.998 63.18C247.946 63.3511 248.231 61.2769 247.369 61.1273Z" fill="#263238"/>
<path d="M253.399 60.8992C253.133 60.7901 252.874 60.6664 252.622 60.5286C252.335 60.4349 252.086 60.2527 251.909 60.0082C251.869 59.9186 251.86 59.818 251.883 59.7225C251.906 59.627 251.961 59.5419 252.038 59.4808C252.205 59.3824 252.396 59.3305 252.59 59.3305C252.784 59.3305 252.975 59.3824 253.142 59.4808C253.517 59.6279 253.822 59.9103 253.998 60.272C254.035 60.3569 254.046 60.4508 254.029 60.5419C254.013 60.633 253.971 60.7174 253.907 60.7843C253.843 60.8513 253.76 60.8979 253.67 60.9183C253.58 60.9388 253.486 60.9321 253.399 60.8992Z" fill="#263238"/>
<path d="M246.677 59.994C246.963 59.9687 247.246 59.9258 247.526 59.8657C247.829 59.8648 248.122 59.7619 248.36 59.5735C248.419 59.4955 248.45 59.4004 248.45 59.3026C248.45 59.2048 248.419 59.1097 248.36 59.0318C248.225 58.8894 248.055 58.7854 247.867 58.7303C247.68 58.6752 247.48 58.671 247.29 58.7181C246.895 58.7518 246.526 58.9323 246.257 59.2242C246.196 59.2967 246.158 59.386 246.148 59.4804C246.139 59.5748 246.158 59.6698 246.204 59.7531C246.249 59.8363 246.319 59.9039 246.403 59.9469C246.488 59.9899 246.583 60.0063 246.677 59.994Z" fill="#263238"/>
<path d="M251.289 66.1666C251.1 66.4047 250.864 66.6011 250.595 66.7434C250.326 66.8857 250.031 66.9708 249.728 66.9934C249.464 67.015 249.198 67.0006 248.937 66.9507H248.787L248.645 66.915C248.612 66.9035 248.584 66.8823 248.563 66.8543C248.543 66.8263 248.532 66.7928 248.531 66.7582C248.527 66.737 248.527 66.7153 248.531 66.6941V66.6442C248.573 66.1452 248.695 65.3968 248.695 65.3968C248.509 65.4681 247.54 65.7888 247.583 65.5322C247.87 63.3047 248.383 61.1123 249.115 58.989C249.115 58.9739 249.121 58.9594 249.132 58.9487C249.143 58.938 249.157 58.932 249.172 58.932C249.187 58.932 249.202 58.938 249.212 58.9487C249.223 58.9594 249.229 58.9739 249.229 58.989C248.973 61.0489 248.36 63.0518 248.074 65.1117C248.418 64.9962 248.775 64.9267 249.137 64.905C249.208 64.905 248.873 66.3305 248.873 66.5729C249.274 66.6563 249.688 66.6576 250.09 66.5768C250.492 66.4959 250.873 66.3346 251.211 66.1025C251.289 66.0739 251.36 66.1238 251.289 66.1666Z" fill="#263238"/>
<path d="M249.222 66.7297C249.459 67.1114 249.79 67.4256 250.184 67.642C250.404 67.7534 250.653 67.7932 250.897 67.7561C251.424 67.6777 251.481 67.2072 251.432 66.7938C251.402 66.5743 251.347 66.3591 251.268 66.1523C250.665 66.5585 249.948 66.7608 249.222 66.7297Z" fill="#263238"/>
<path d="M250.213 67.642C250.433 67.7534 250.682 67.7932 250.926 67.7561C251.453 67.6777 251.51 67.2072 251.46 66.7938C251.187 66.7721 250.914 66.8443 250.687 66.9985C250.46 67.1528 250.293 67.3798 250.213 67.642Z" fill="#FF99BA"/>
<path d="M259.771 63.8287C258.139 63.6861 258.41 59.6803 258.41 59.6803C258.41 59.6803 255.922 59.16 254.796 55.6888C254.796 55.6888 251.517 57.6204 248.83 57.0502C244.625 56.1593 244.895 50.6353 246.513 49.5875C248.801 48.0693 252.736 50.4927 252.736 50.4927C252.736 50.4927 258.83 48.9816 260.512 53.13C261.294 53.2073 262.017 53.5785 262.536 54.1686C263.055 54.7587 263.33 55.5237 263.306 56.3089C263.406 59.2955 260.99 63.9356 259.771 63.8287Z" fill="#263238"/>
<path d="M258.98 60.165C257.77 59.9222 256.677 59.2825 255.872 58.3475C255.442 57.8397 255.14 57.2362 254.991 56.5876C254.842 55.939 254.851 55.2642 255.017 54.6197C255.013 54.6088 255.005 54.5994 254.996 54.5927C254.986 54.5861 254.975 54.5825 254.963 54.5825C254.952 54.5825 254.94 54.5861 254.931 54.5927C254.921 54.5994 254.914 54.6088 254.91 54.6197C254.7 55.2917 254.642 56.0016 254.738 56.6989C254.834 57.3961 255.082 58.0637 255.466 58.654C255.852 59.215 256.38 59.6639 256.996 59.9556C257.612 60.2472 258.294 60.3711 258.973 60.3147C258.992 60.3157 259.012 60.3087 259.027 60.2953C259.041 60.282 259.05 60.2633 259.051 60.2435C259.052 60.2236 259.045 60.2042 259.032 60.1895C259.018 60.1748 259 60.166 258.98 60.165Z" fill="#263238"/>
<path d="M263.577 54.5698C262.772 53.4864 261.503 53.2868 260.249 53.2939C260.178 53.2939 260.178 53.4151 260.249 53.408C260.875 53.4026 261.492 53.5658 262.034 53.8806C262.575 54.1953 263.022 54.6501 263.328 55.197C263.574 55.7136 263.715 56.2744 263.74 56.8462C263.766 57.4179 263.677 57.9891 263.478 58.5257C262.938 60.6307 261.634 62.4597 259.821 63.6576C259.821 63.6576 259.821 63.7289 259.821 63.7075C260.852 63.1 261.747 62.2885 262.453 61.3228C263.159 60.357 263.661 59.2572 263.927 58.0909C264.19 56.9576 264.312 55.5677 263.577 54.5698Z" fill="#263238"/>
<path d="M252.893 50.6852C252.386 49.8125 251.577 49.1558 250.619 48.8391C249.454 48.4873 248.2 48.5787 247.098 49.0957C246.659 49.3135 246.286 49.6442 246.016 50.0537C245.747 50.4633 245.592 50.937 245.566 51.4265C245.535 52.5644 245.895 53.6786 246.585 54.584C246.585 54.584 246.642 54.584 246.628 54.584C246.079 53.7372 245.805 52.7414 245.844 51.733C245.869 51.2503 246.03 50.7846 246.309 50.3897C246.587 49.9949 246.972 49.6871 247.419 49.502C249.179 48.7892 251.695 48.9817 252.8 50.7778C252.836 50.8206 252.928 50.7565 252.893 50.6852Z" fill="#263238"/>
<path d="M258.844 63.6647C258.844 63.6647 260.933 60.5855 262.33 61.3268C263.727 62.0681 262.187 66.5158 260.569 67.1431C260.367 67.2374 260.148 67.29 259.925 67.2979C259.703 67.3058 259.48 67.2687 259.272 67.1889C259.064 67.1091 258.874 66.9882 258.714 66.8333C258.553 66.6785 258.425 66.4929 258.338 66.2877L258.844 63.6647Z" fill="#DD6A57"/>
<path d="M151.922 128.178H238.523V67.5351H151.922V128.178Z" fill="#263238"/>
<path d="M169.213 91.9476C173.177 91.9476 176.391 88.7341 176.391 84.77C176.391 80.8059 173.177 77.5923 169.213 77.5923C165.249 77.5923 162.036 80.8059 162.036 84.77C162.036 88.7341 165.249 91.9476 169.213 91.9476Z" fill="#FF3F59"/>
<path d="M190.368 114.984H238.53L214.446 82.3394L190.368 114.984Z" fill="#C7C7C7"/>
<path d="M171.494 115.134H211.253L191.374 93.8863L171.494 115.134Z" fill="white"/>
<path d="M238.516 115.105H151.914V128.171H238.516V115.105Z" fill="#FF3F59"/>
<path d="M268.759 79.9088C271.004 86.1884 267.797 109.225 263.998 114.079C258.36 121.307 247.219 127.957 242.957 130.031C241.104 130.936 232.757 117.6 234.575 116.353C238.473 113.673 250.926 107.286 251.98 106.018C253.035 104.749 258.709 92.5605 260.983 85.6965C264.033 76.4875 267.626 76.7228 268.759 79.9088Z" fill="#DD6A57"/>
<path d="M242.95 130.067C237.041 133.438 225.287 132.918 223.705 132.447C222.344 132.041 221.638 131.813 221.638 131.813C219.172 131.1 218.509 129.753 218.509 129.753C218.509 129.753 215.423 129.796 215.088 127.928C214.71 125.847 219.115 126.196 221.659 124.906C227.49 121.955 234.953 116.125 236.549 115.105L242.95 130.067Z" fill="#DD6A57"/>
<path d="M229.927 126.104C228.232 126.991 226.476 127.761 224.674 128.406C222.66 128.985 220.607 129.416 218.53 129.696C218.517 129.696 218.504 129.701 218.495 129.711C218.486 129.72 218.48 129.733 218.48 129.746C218.48 129.759 218.486 129.772 218.495 129.781C218.504 129.79 218.517 129.796 218.53 129.796C222.599 129.677 226.558 128.447 229.977 126.239C229.986 126.228 229.992 126.214 229.994 126.2C229.996 126.186 229.995 126.171 229.99 126.158C229.985 126.144 229.976 126.132 229.965 126.123C229.955 126.113 229.942 126.107 229.927 126.104Z" fill="#263238"/>
<path d="M232.215 129.368C228.851 130.782 225.262 131.588 221.616 131.749C221.616 131.749 221.616 131.749 221.616 131.749C225.319 132.007 229.02 131.232 232.308 129.511C232.386 129.489 232.337 129.318 232.215 129.368Z" fill="#263238"/>
<path d="M228.438 120.907C229.044 120.195 228.694 119.895 227.091 120.195C225.487 120.494 219.4 122.996 218.701 120.801C218.003 118.605 226.649 115.184 229.35 114.899C231.792 114.773 234.24 114.844 236.67 115.113C235.124 116.11 231.453 118.897 228.438 120.907Z" fill="#DD6A57"/>
<path d="M262.48 81.4769C266.421 73.1945 270.014 75.3898 270.32 83.6152C270.44 89.3088 270.188 95.0041 269.565 100.665L255.309 96.5734L262.48 81.4769Z" fill="#EBEBEB"/>
<path d="M259.793 84.9339C259.918 85.3789 259.978 85.84 259.971 86.3024C259.979 86.7625 259.919 87.2212 259.793 87.6638C259.67 87.2205 259.61 86.7623 259.614 86.3024C259.61 85.8402 259.67 85.3796 259.793 84.9339Z" fill="white"/>
<path d="M268.367 88.07C267.922 88.1957 267.461 88.2557 266.999 88.2482C266.539 88.2557 266.08 88.1957 265.637 88.07C266.081 87.9482 266.539 87.8882 266.999 87.8918C267.461 87.8876 267.922 87.9475 268.367 88.07Z" fill="white"/>
<path d="M266.037 76.6515C266.836 77.1182 267.501 77.7836 267.968 78.5831C267.564 78.3598 267.196 78.0762 266.878 77.742C266.545 77.4219 266.262 77.0544 266.037 76.6515Z" fill="white"/>
<path d="M257.511 93.5085C258.311 93.9753 258.976 94.6406 259.443 95.4401C259.039 95.2168 258.671 94.9332 258.352 94.599C258.02 94.2789 257.737 93.9114 257.511 93.5085Z" fill="white"/>
<path d="M267.398 96.4024C267.865 95.6029 268.53 94.9375 269.329 94.4707C268.873 95.2784 268.205 95.9463 267.398 96.4024Z" fill="white"/>
<path d="M261.118 84.0072C260.584 85.0907 260.021 86.1456 259.457 87.2361C259.557 86.7229 259.636 86.2168 259.693 85.6965H259.657C259.572 86.1028 259.479 86.502 259.4 86.9082L259.294 87.4927C259.29 87.5354 259.29 87.5783 259.294 87.621C258.859 88.4549 258.424 89.296 258.018 90.1442C257.526 91.1563 257.063 92.1756 256.592 93.202C256.122 94.2284 255.687 95.4757 255.167 96.5092C255.615 96.6923 256.081 96.8307 256.556 96.9227C256.685 96.9726 256.749 96.8443 256.614 96.83C256.478 96.8157 255.423 96.381 255.409 96.3738C255.872 95.3403 256.457 94.3638 256.956 93.3517C257.455 92.3395 257.954 91.3345 258.424 90.3081C259.393 88.234 260.241 86.1099 261.197 84.0286C261.168 83.993 261.125 83.9787 261.118 84.0072Z" fill="#263238"/>
<path d="M270.954 88.9396C270.819 89.3673 270.669 89.7878 270.562 90.2226L270.434 90.7572C270.484 89.2746 270.534 87.7992 270.577 86.3166C270.377 88.7329 270.163 91.1492 270.006 93.5726C269.782 95.8918 269.675 98.2207 269.686 100.551C269.257 100.447 268.821 100.377 268.381 100.344C268.849 100.55 269.343 100.691 269.85 100.764C270.143 98.3466 270.312 95.9152 270.356 93.48C270.356 92.81 270.406 92.1471 270.434 91.4842C270.512 91.0708 270.627 90.6645 270.741 90.2583C270.855 89.852 270.933 89.3887 271.026 88.9539C271.004 88.9254 270.962 88.9182 270.954 88.9396Z" fill="#263238"/>
<path d="M269.008 98.4409C266.998 97.7281 258.666 95.098 256.827 94.6489C256.699 94.6133 256.649 94.6489 256.777 94.7345C260.773 96.2167 264.847 97.4802 268.98 98.5193C268.989 98.5205 268.999 98.5184 269.007 98.5134C269.016 98.5083 269.022 98.5006 269.025 98.4915C269.029 98.4824 269.029 98.4724 269.026 98.4632C269.023 98.454 269.016 98.4461 269.008 98.4409Z" fill="#263238"/>
<path d="M195.115 77.7064C197.083 78.3051 196.669 75.6393 196.669 75.6393C196.669 75.6393 198.195 79.3315 200.468 79.2032C202.742 79.0749 202.036 75.8318 202.001 75.6037C202.079 75.7961 203.576 79.1675 205.843 78.7541C208.109 78.3407 207.026 75.1903 206.947 75.0263C207.083 75.1831 208.915 77.2644 210.561 76.5659C213.412 75.3685 208.872 69.9229 209.2 67.4496L213.191 67.5708C213.32 67.5708 213.455 67.5708 213.583 67.5066L213.733 65.4681C212.457 64.9495 211.225 64.3298 210.048 63.6149C208.544 62.7738 207.09 62.004 206.014 61.9826C205.528 61.9565 205.047 62.0872 204.641 62.3554C204.236 62.6237 203.927 63.0153 203.761 63.4723C203.761 63.4723 202.592 61.6191 200.796 61.8828C199.877 62.0183 199.278 63.6149 199.278 63.6149C198.992 63.2095 198.6 62.8911 198.145 62.6948C197.689 62.4986 197.189 62.4322 196.698 62.503C195.436 62.7595 195.023 64.3205 195.023 64.3205C195.023 64.3205 193.426 63.3797 192.222 64.0639C189.791 65.4039 190.896 76.4091 195.115 77.7064Z" fill="#DD6A57"/>
<path d="M209.713 67.2143L213.192 67.5351C213.32 67.5351 213.455 67.5351 213.584 67.4709C217.974 66.6726 220.711 61.6547 217.525 61.2912C215.102 61.0132 212.493 64.2207 210.048 63.5792L209.713 67.2143Z" fill="#DD6A57"/>
<path d="M199.25 63.5151C199.25 63.4723 199.179 63.4723 199.171 63.5151C198.601 67.7675 199.572 72.0838 201.908 75.6821C201.994 75.8033 202.194 75.8318 202.108 75.6821C200.633 73.1803 199.328 67.079 199.25 63.5151Z" fill="#263238"/>
<path d="M207.204 75.1832C204.959 71.6193 204.068 67.7347 203.733 63.5935C203.733 63.5365 203.654 63.5507 203.64 63.5935C203.255 65.6677 203.747 68.2835 204.296 70.2864C204.775 72.1637 205.736 73.8835 207.083 75.2758C207.168 75.3115 207.254 75.2544 207.204 75.1832Z" fill="#263238"/>
</svg>
